<svg width="32" height="32" viewBox="0 0 32 32" fill="none" xmlns="http://www.w3.org/2000/svg">
<g id="bank_color 1">
<g id="Group 1000002247">
<path id="Vector" d="M4.85693 11.972V11.1106L15.9998 4.00684L27.1426 11.1106V11.972H4.85693Z" fill="url(#paint0_linear_8_4580)"/>
<path id="Vector_2" d="M4.85693 11.972V11.1106L15.9998 4.00684L27.1426 11.1106V11.972H4.85693Z" fill="url(#paint1_linear_8_4580)"/>
<path id="Vector_3" d="M4.85693 11.972V11.1106L15.9998 4.00684L27.1426 11.1106V11.972H4.85693Z" fill="url(#paint2_linear_8_4580)"/>
<path id="Vector_4" d="M4.85693 11.972V11.1106L15.9998 4.00684L27.1426 11.1106V11.972H4.85693Z" fill="url(#paint3_radial_8_4580)"/>
<path id="Vector_5" d="M4.85693 11.972V11.1106L15.9998 4.00684L27.1426 11.1106V11.972H4.85693Z" fill="url(#paint4_linear_8_4580)"/>
<g id="Group" filter="url(#filter0_i_8_4580)">
<path id="Vector_6" d="M5.5686 10.338L14.8172 4.35297C15.5372 3.88234 16.4629 3.88234 17.1829 4.35297L26.4315 10.338V12.0163L16.5744 5.67606C16.2229 5.45407 15.7858 5.45407 15.4344 5.67606L5.57718 12.0163V10.338H5.5686Z" fill="url(#paint5_linear_8_4580)"/>
<path id="Vector_7" d="M5.5686 10.338L14.8172 4.35297C15.5372 3.88234 16.4629 3.88234 17.1829 4.35297L26.4315 10.338V12.0163L16.5744 5.67606C16.2229 5.45407 15.7858 5.45407 15.4344 5.67606L5.57718 12.0163V10.338H5.5686Z" fill="url(#paint6_linear_8_4580)"/>
<path id="Vector_8" d="M5.5686 10.338L14.8172 4.35297C15.5372 3.88234 16.4629 3.88234 17.1829 4.35297L26.4315 10.338V12.0163L16.5744 5.67606C16.2229 5.45407 15.7858 5.45407 15.4344 5.67606L5.57718 12.0163V10.338H5.5686Z" fill="url(#paint7_radial_8_4580)"/>
<path id="Vector_9" d="M5.5686 10.338L14.8172 4.35297C15.5372 3.88234 16.4629 3.88234 17.1829 4.35297L26.4315 10.338V12.0163L16.5744 5.67606C16.2229 5.45407 15.7858 5.45407 15.4344 5.67606L5.57718 12.0163V10.338H5.5686Z" fill="url(#paint8_radial_8_4580)"/>
</g>
<g id="Group_2" filter="url(#filter1_f_8_4580)">
<path id="Vector_10" d="M6.44775 10.4746L12.0112 6.97021" stroke="url(#paint9_linear_8_4580)" stroke-width="0.5" stroke-linecap="round"/>
</g>
<g id="Group_3" filter="url(#filter2_f_8_4580)">
<path id="Vector_11" d="M16.5959 4.49756L24.941 9.85197" stroke="url(#paint10_linear_8_4580)" stroke-width="0.5" stroke-linecap="round"/>
</g>
<path id="Vector_12" d="M24.5713 11.1282H7.42847V26.2238H24.5713V11.1282Z" fill="#96919E"/>
<path id="Vector_13" d="M24.5713 11.1282H7.42847V26.2238H24.5713V11.1282Z" fill="url(#paint11_linear_8_4580)"/>
<path id="Vector_14" d="M24.5713 11.1282H7.42847V26.2238H24.5713V11.1282Z" fill="url(#paint12_linear_8_4580)"/>
<path id="Vector_15" d="M24.5713 11.1282H7.42847V26.2238H24.5713V11.1282Z" fill="url(#paint13_linear_8_4580)"/>
<path id="Vector_16" d="M26.2855 14.3816H23.7141V26.2032H26.2855V14.3816Z" fill="url(#paint14_linear_8_4580)"/>
<path id="Vector_17" d="M26.2855 14.3816H23.7141V26.2032H26.2855V14.3816Z" fill="url(#paint15_linear_8_4580)"/>
<path id="Vector_18" d="M26.2855 14.3816H23.7141V26.2032H26.2855V14.3816Z" fill="url(#paint16_linear_8_4580)"/>
<path id="Vector_19" d="M26.2855 14.3816H23.7141V26.2032H26.2855V14.3816Z" fill="url(#paint17_radial_8_4580)"/>
<path id="Vector_20" d="M22.8573 14.4028H20.2859V26.2243H22.8573V14.4028Z" fill="url(#paint18_linear_8_4580)"/>
<path id="Vector_21" d="M22.8573 14.4028H20.2859V26.2243H22.8573V14.4028Z" fill="url(#paint19_linear_8_4580)"/>
<path id="Vector_22" d="M22.8573 14.4028H20.2859V26.2243H22.8573V14.4028Z" fill="url(#paint20_linear_8_4580)"/>
<path id="Vector_23" d="M22.8573 14.4028H20.2859V26.2243H22.8573V14.4028Z" fill="url(#paint21_radial_8_4580)"/>
<path id="Vector_24" d="M11.7143 14.4028H9.14282V26.0227H11.7143V14.4028Z" fill="url(#paint22_linear_8_4580)"/>
<path id="Vector_25" d="M11.7143 14.4028H9.14282V26.0227H11.7143V14.4028Z" fill="url(#paint23_linear_8_4580)"/>
<path id="Vector_26" d="M11.7143 14.4028H9.14282V26.0227H11.7143V14.4028Z" fill="url(#paint24_linear_8_4580)"/>
<path id="Vector_27" d="M11.7143 14.4028H9.14282V26.0227H11.7143V14.4028Z" fill="url(#paint25_linear_8_4580)"/>
<path id="Vector_28" d="M11.7143 14.4028H9.14282V26.0227H11.7143V14.4028Z" fill="url(#paint26_radial_8_4580)"/>
<path id="Vector_29" d="M8.28578 14.4028H5.71436V26.0227H8.28578V14.4028Z" fill="url(#paint27_linear_8_4580)"/>
<path id="Vector_30" d="M8.28578 14.4028H5.71436V26.0227H8.28578V14.4028Z" fill="url(#paint28_linear_8_4580)"/>
<path id="Vector_31" d="M8.28578 14.4028H5.71436V26.0227H8.28578V14.4028Z" fill="url(#paint29_linear_8_4580)"/>
<path id="Vector_32" d="M8.28578 14.4028H5.71436V26.0227H8.28578V14.4028Z" fill="url(#paint30_radial_8_4580)"/>
<path id="Vector_33" d="M27.1419 14.3817V12.0107H4.8562V14.3817H27.1419Z" fill="url(#paint31_linear_8_4580)"/>
<path id="Vector_34" d="M27.1419 14.3817V12.0107H4.8562V14.3817H27.1419Z" fill="url(#paint32_linear_8_4580)"/>
<path id="Vector_35" d="M27.1419 14.3817V12.0107H4.8562V14.3817H27.1419Z" fill="url(#paint33_linear_8_4580)"/>
<path id="Vector_36" d="M27.1419 14.3817V12.0107H4.8562V14.3817H27.1419Z" fill="url(#paint34_radial_8_4580)"/>
<path id="Vector_37" d="M27.1419 14.3817V12.0107H4.8562V14.3817H27.1419Z" fill="url(#paint35_linear_8_4580)"/>
<path id="Vector_38" d="M27.1419 14.3817V12.0107H4.8562V14.3817H27.1419Z" fill="url(#paint36_linear_8_4580)"/>
<path id="Vector_39" d="M4 11.1285C4 10.6401 4.38571 10.2405 4.85714 10.2405H27.1429C27.6143 10.2405 28 10.6401 28 11.1285C28 11.6169 27.6143 12.0165 27.1429 12.0165H4.85714C4.38571 12.0165 4 11.6169 4 11.1285Z" fill="url(#paint37_linear_8_4580)"/>
<path id="Vector_40" d="M4 11.1285C4 10.6401 4.38571 10.2405 4.85714 10.2405H27.1429C27.6143 10.2405 28 10.6401 28 11.1285C28 11.6169 27.6143 12.0165 27.1429 12.0165H4.85714C4.38571 12.0165 4 11.6169 4 11.1285Z" fill="url(#paint38_linear_8_4580)"/>
<path id="Vector_41" d="M4 11.1285C4 10.6401 4.38571 10.2405 4.85714 10.2405H27.1429C27.6143 10.2405 28 10.6401 28 11.1285C28 11.6169 27.6143 12.0165 27.1429 12.0165H4.85714C4.38571 12.0165 4 11.6169 4 11.1285Z" fill="url(#paint39_linear_8_4580)"/>
<path id="Vector_42" d="M4 11.1285C4 10.6401 4.38571 10.2405 4.85714 10.2405H27.1429C27.6143 10.2405 28 10.6401 28 11.1285C28 11.6169 27.6143 12.0165 27.1429 12.0165H4.85714C4.38571 12.0165 4 11.6169 4 11.1285Z" fill="url(#paint40_linear_8_4580)"/>
<path id="Vector_43" d="M4 11.1285C4 10.6401 4.38571 10.2405 4.85714 10.2405H27.1429C27.6143 10.2405 28 10.6401 28 11.1285C28 11.6169 27.6143 12.0165 27.1429 12.0165H4.85714C4.38571 12.0165 4 11.6169 4 11.1285Z" fill="url(#paint41_radial_8_4580)"/>
<path id="Vector_44" d="M4 11.1285C4 10.6401 4.38571 10.2405 4.85714 10.2405H27.1429C27.6143 10.2405 28 10.6401 28 11.1285C28 11.6169 27.6143 12.0165 27.1429 12.0165H4.85714C4.38571 12.0165 4 11.6169 4 11.1285Z" fill="url(#paint42_radial_8_4580)"/>
<path id="Vector_45" d="M4 11.1285C4 10.6401 4.38571 10.2405 4.85714 10.2405H27.1429C27.6143 10.2405 28 10.6401 28 11.1285C28 11.6169 27.6143 12.0165 27.1429 12.0165H4.85714C4.38571 12.0165 4 11.6169 4 11.1285Z" fill="url(#paint43_radial_8_4580)"/>
<g id="Group_4" filter="url(#filter3_i_8_4580)">
<path id="Vector_46" d="M4 14.6802C4 14.1918 4.38571 13.7922 4.85714 13.7922H27.1429C27.6143 13.7922 28 14.1918 28 14.6802C28 15.1686 27.6143 15.5682 27.1429 15.5682H4.85714C4.38571 15.5682 4 15.1686 4 14.6802Z" fill="url(#paint44_linear_8_4580)"/>
<path id="Vector_47" d="M4 14.6802C4 14.1918 4.38571 13.7922 4.85714 13.7922H27.1429C27.6143 13.7922 28 14.1918 28 14.6802C28 15.1686 27.6143 15.5682 27.1429 15.5682H4.85714C4.38571 15.5682 4 15.1686 4 14.6802Z" fill="url(#paint45_linear_8_4580)"/>
<path id="Vector_48" d="M4 14.6802C4 14.1918 4.38571 13.7922 4.85714 13.7922H27.1429C27.6143 13.7922 28 14.1918 28 14.6802C28 15.1686 27.6143 15.5682 27.1429 15.5682H4.85714C4.38571 15.5682 4 15.1686 4 14.6802Z" fill="url(#paint46_linear_8_4580)"/>
</g>
<path id="Vector_49" d="M4 14.6802C4 14.1918 4.38571 13.7922 4.85714 13.7922H27.1429C27.6143 13.7922 28 14.1918 28 14.6802C28 15.1686 27.6143 15.5682 27.1429 15.5682H4.85714C4.38571 15.5682 4 15.1686 4 14.6802Z" fill="url(#paint47_radial_8_4580)"/>
<path id="Vector_50" d="M4 14.6802C4 14.1918 4.38571 13.7922 4.85714 13.7922H27.1429C27.6143 13.7922 28 14.1918 28 14.6802C28 15.1686 27.6143 15.5682 27.1429 15.5682H4.85714C4.38571 15.5682 4 15.1686 4 14.6802Z" fill="url(#paint48_radial_8_4580)"/>
<path id="Vector_51" d="M28 28.0001H4V27.1743C4 26.6504 4.41142 26.2241 4.91713 26.2241H27.0743C27.58 26.2241 27.9914 26.6504 27.9914 27.1743V28.0001H28Z" fill="url(#paint49_linear_8_4580)"/>
<path id="Vector_52" d="M28 28.0001H4V27.1743C4 26.6504 4.41142 26.2241 4.91713 26.2241H27.0743C27.58 26.2241 27.9914 26.6504 27.9914 27.1743V28.0001H28Z" fill="url(#paint50_linear_8_4580)"/>
<path id="Vector_53" d="M28 28.0001H4V27.1743C4 26.6504 4.41142 26.2241 4.91713 26.2241H27.0743C27.58 26.2241 27.9914 26.6504 27.9914 27.1743V28.0001H28Z" fill="url(#paint51_linear_8_4580)"/>
<path id="Vector_54" d="M28 28.0001H4V27.1743C4 26.6504 4.41142 26.2241 4.91713 26.2241H27.0743C27.58 26.2241 27.9914 26.6504 27.9914 27.1743V28.0001H28Z" fill="url(#paint52_linear_8_4580)"/>
<g id="Group_5" filter="url(#filter4_i_8_4580)">
<path id="Vector_55" d="M18.5716 24.448H13.4287V18.7916C13.4287 18.4808 13.6687 18.2322 13.9687 18.2322H18.023C18.323 18.2322 18.5716 18.4897 18.5716 18.8005V24.448Z" fill="#4B4258"/>
<path id="Vector_56" d="M18.5716 24.448H13.4287V18.7916C13.4287 18.4808 13.6687 18.2322 13.9687 18.2322H18.023C18.323 18.2322 18.5716 18.4897 18.5716 18.8005V24.448Z" fill="url(#paint53_linear_8_4580)"/>
</g>
<g id="Group_6" filter="url(#filter5_ii_8_4580)">
<path id="Vector_57" d="M15.983 13.7923C18.3546 13.7923 20.2773 11.8006 20.2773 9.34356C20.2773 6.88656 18.3546 4.89478 15.983 4.89478C13.6113 4.89478 11.6887 6.88656 11.6887 9.34356C11.6887 11.8006 13.6113 13.7923 15.983 13.7923Z" fill="#B2ABB9"/>
<path id="Vector_58" d="M15.983 13.7923C18.3546 13.7923 20.2773 11.8006 20.2773 9.34356C20.2773 6.88656 18.3546 4.89478 15.983 4.89478C13.6113 4.89478 11.6887 6.88656 11.6887 9.34356C11.6887 11.8006 13.6113 13.7923 15.983 13.7923Z" fill="url(#paint54_radial_8_4580)"/>
</g>
<g id="Group_7" filter="url(#filter6_f_8_4580)">
<path id="Vector_59" d="M17.0978 10.1702C17.0978 10.3917 17.0294 10.5867 16.9011 10.7551C16.7813 10.9146 16.6188 11.0387 16.422 11.1184C16.3707 11.1451 16.3194 11.1628 16.268 11.1716V11.6857C16.268 11.8984 16.0698 12.0756 15.8559 12.0756C15.642 12.0756 15.4382 11.8984 15.4382 11.6857V11.2071C15.3099 11.1894 15.1901 11.154 15.0703 11.1008C14.8308 11.0121 14.634 10.8526 14.48 10.6399C14.4287 10.569 14.4116 10.4892 14.4116 10.3917C14.4116 10.2499 14.4714 10.1347 14.5998 10.0372C14.7794 9.92202 14.9762 9.94861 15.1387 10.117C15.2328 10.2233 15.3355 10.3031 15.4382 10.3563C15.4467 10.3651 15.4638 10.3651 15.4724 10.374C15.5922 10.4272 15.7376 10.4626 15.9001 10.4626C16.268 10.4449 16.268 10.2677 16.268 10.1968C16.268 10.117 16.2338 10.055 16.1568 10.0106C16.0627 9.95747 15.9001 9.89543 15.6948 9.84225C15.6007 9.81567 15.5152 9.78908 15.4382 9.76249C15.3184 9.71818 15.2072 9.68273 15.1217 9.63841C14.9591 9.56751 14.8223 9.46116 14.711 9.3105C14.5913 9.15983 14.5314 8.96485 14.5314 8.71669C14.5314 8.49513 14.5913 8.30901 14.7196 8.14062C14.8308 7.9811 14.9848 7.86588 15.1815 7.77725C15.267 7.74181 15.3527 7.70636 15.4382 7.68863V7.15688C15.4382 6.94417 15.6253 6.75806 15.8392 6.75806C16.053 6.75806 16.268 6.94417 16.268 7.15688V7.72408C16.3194 7.73294 16.3621 7.75067 16.4135 7.76839C16.6273 7.85702 16.807 7.9811 16.9267 8.14949C16.9951 8.22925 17.0208 8.32675 17.0208 8.42423C17.0208 8.54831 16.9781 8.65466 16.8754 8.73443C16.7214 8.86737 16.4819 8.84964 16.345 8.70783C16.3194 8.68125 16.2936 8.65466 16.268 8.63693C16.2167 8.58376 16.1653 8.54831 16.0969 8.52172C16.0028 8.46855 15.8831 8.45082 15.7547 8.45082C15.5665 8.45082 15.481 8.49513 15.4382 8.54831C15.4039 8.59263 15.4039 8.6458 15.4039 8.68125C15.4039 8.72556 15.4125 8.76987 15.4382 8.80532C15.4382 8.81418 15.4467 8.82305 15.4553 8.83191C15.5066 8.87623 15.558 8.91168 15.6349 8.93826C15.7119 8.96485 15.8317 9.00031 15.9857 9.04462C16.0884 9.08006 16.1825 9.10665 16.268 9.13325C16.3706 9.16869 16.4562 9.20414 16.5332 9.23959C16.6872 9.31936 16.824 9.42571 16.9267 9.57637C17.0379 9.72704 17.0978 9.92202 17.0978 10.1702Z" fill="#6A6177"/>
</g>
<g id="Group_8" filter="url(#filter7_i_8_4580)">
<path id="Vector_60" d="M17.2344 10.0984C17.2344 10.3204 17.1659 10.5158 17.0373 10.6845C16.9173 10.8443 16.7545 10.9686 16.5573 11.0486C16.5059 11.0752 16.4544 11.093 16.403 11.1018V11.6168C16.403 11.8299 16.2044 12.0075 15.9901 12.0075C15.7758 12.0075 15.5716 11.8299 15.5716 11.6168V11.1373C15.4431 11.1195 15.3231 11.0841 15.2031 11.0308C14.9631 10.942 14.7659 10.7822 14.6116 10.569C14.5602 10.498 14.543 10.4181 14.543 10.3204C14.543 10.1783 14.6031 10.0629 14.7316 9.96522C14.9116 9.84978 15.1088 9.87642 15.2716 10.0451C15.3659 10.1517 15.4688 10.2316 15.5716 10.2849C15.5802 10.2938 15.5973 10.2938 15.6059 10.3026C15.7259 10.3559 15.8716 10.3914 16.0345 10.3914C16.4031 10.3737 16.403 10.1961 16.403 10.1251C16.403 10.0451 16.3688 9.98298 16.2916 9.93858C16.1973 9.8853 16.0344 9.82314 15.8287 9.76986C15.7344 9.74322 15.6488 9.71658 15.5716 9.68994C15.4516 9.64554 15.3402 9.61002 15.2545 9.56563C15.0916 9.49459 14.9545 9.38803 14.8431 9.23707C14.7231 9.08612 14.663 8.89076 14.663 8.64212C14.663 8.42013 14.723 8.23365 14.8515 8.06494C14.963 7.9051 15.1173 7.78966 15.3145 7.70087C15.4002 7.66535 15.4859 7.62983 15.5716 7.61207V7.07928C15.5716 6.86616 15.7591 6.67969 15.9734 6.67969C16.1877 6.67969 16.403 6.86616 16.403 7.07928V7.64759C16.4544 7.65647 16.4973 7.67423 16.5488 7.69199C16.7631 7.78078 16.9431 7.9051 17.0631 8.07382C17.1316 8.15374 17.1573 8.25141 17.1573 8.34909C17.1573 8.47341 17.1145 8.57997 17.0116 8.65988C16.8573 8.79308 16.6173 8.77532 16.4802 8.63325C16.4545 8.60661 16.4287 8.57997 16.403 8.56221C16.3515 8.50893 16.3002 8.47341 16.2316 8.44677C16.1373 8.39349 16.0173 8.37573 15.8888 8.37573C15.7002 8.37573 15.6145 8.42013 15.5716 8.47341C15.5373 8.51781 15.5373 8.57109 15.5373 8.60661C15.5373 8.651 15.5459 8.6954 15.5716 8.73092C15.5716 8.7398 15.5802 8.74868 15.5888 8.75756C15.6402 8.80196 15.6916 8.83748 15.7688 8.86412C15.8459 8.89076 15.9659 8.92628 16.1202 8.97068C16.2231 9.0062 16.3173 9.03284 16.403 9.05948C16.5058 9.095 16.5916 9.13051 16.6688 9.16603C16.8231 9.24595 16.9602 9.35251 17.0631 9.50347C17.1745 9.65442 17.2344 9.84978 17.2344 10.0984Z" fill="#734B9B"/>
</g>
<g id="Group_9" filter="url(#filter8_f_8_4580)">
<path id="Vector_61" d="M16.7903 8.30773C16.5715 8.10423 16.1742 7.79436 15.5983 7.9678C14.9809 8.15371 15.0025 8.97962 15.5313 9.16796C16.3885 9.47321 16.7903 9.42464 16.8706 9.96576C16.951 10.5069 16.4487 10.7219 15.9532 10.6803C15.5196 10.6439 15.1117 10.345 14.9956 10.1878" stroke="#8E66B8" stroke-width="0.15" stroke-linecap="round"/>
</g>
<g id="Group_10" filter="url(#filter9_f_8_4580)">
<path id="Vector_62" d="M16.1396 6.99121V7.98916" stroke="#8E66B8" stroke-width="0.15" stroke-linecap="round"/>
</g>
<g id="Group_11" filter="url(#filter10_f_8_4580)">
<path id="Vector_63" d="M16.1123 10.7354V11.5947" stroke="#8E66B8" stroke-width="0.15" stroke-linecap="round"/>
</g>
<g id="Group_12" filter="url(#filter11_f_8_4580)">
<path id="Vector_64" d="M7.86644 15.5684H7.15332V24.8999H7.86644V15.5684Z" fill="url(#paint55_linear_8_4580)"/>
</g>
<g id="Group_13" filter="url(#filter12_f_8_4580)">
<path id="Vector_65" d="M22.2844 15.5684H21.5713V24.8999H22.2844V15.5684Z" fill="url(#paint56_linear_8_4580)"/>
</g>
<g id="Group_14" filter="url(#filter13_f_8_4580)">
<path id="Vector_66" d="M11.2138 15.5684H10.5007V24.8999H11.2138V15.5684Z" fill="url(#paint57_linear_8_4580)"/>
</g>
<path id="Vector_67" d="M27.1428 26.224H4.8313V25.3981C4.8313 24.8742 5.24274 24.448 5.74845 24.448H26.2256C26.7313 24.448 27.1428 24.8742 27.1428 25.3981V26.224Z" fill="url(#paint58_linear_8_4580)"/>
<path id="Vector_68" d="M27.1428 26.224H4.8313V25.3981C4.8313 24.8742 5.24274 24.448 5.74845 24.448H26.2256C26.7313 24.448 27.1428 24.8742 27.1428 25.3981V26.224Z" fill="url(#paint59_linear_8_4580)"/>
<path id="Vector_69" d="M27.1428 26.224H4.8313V25.3981C4.8313 24.8742 5.24274 24.448 5.74845 24.448H26.2256C26.7313 24.448 27.1428 24.8742 27.1428 25.3981V26.224Z" fill="url(#paint60_linear_8_4580)"/>
<path id="Vector_70" d="M27.1428 26.224H4.8313V25.3981C4.8313 24.8742 5.24274 24.448 5.74845 24.448H26.2256C26.7313 24.448 27.1428 24.8742 27.1428 25.3981V26.224Z" fill="url(#paint61_linear_8_4580)"/>
<path id="Vector_71" d="M27.1428 26.224H4.8313V25.3981C4.8313 24.8742 5.24274 24.448 5.74845 24.448H26.2256C26.7313 24.448 27.1428 24.8742 27.1428 25.3981V26.224Z" fill="url(#paint62_linear_8_4580)"/>
</g>
</g>
<defs>
<filter id="filter0_i_8_4580" x="5.5686" y="3.7" width="20.8628" height="8.31636" filterUnits="userSpaceOnUse" color-interpolation-filters="sRGB">
<feFlood flood-opacity="0" result="BackgroundImageFix"/>
<feBlend mode="normal" in="SourceGraphic" in2="BackgroundImageFix" result="shape"/>
<feColorMatrix in="SourceAlpha" type="matrix" values="0 0 0 0 0 0 0 0 0 0 0 0 0 0 0 0 0 0 127 0" result="hardAlpha"/>
<feOffset dy="-0.3"/>
<feGaussianBlur stdDeviation="0.3"/>
<feComposite in2="hardAlpha" operator="arithmetic" k2="-1" k3="1"/>
<feColorMatrix type="matrix" values="0 0 0 0 0.364706 0 0 0 0 0.352941 0 0 0 0 0.384314 0 0 0 1 0"/>
<feBlend mode="normal" in2="shape" result="effect1_innerShadow_8_4580"/>
</filter>
<filter id="filter1_f_8_4580" x="5.69775" y="6.22021" width="7.06348" height="5.00439" filterUnits="userSpaceOnUse" color-interpolation-filters="sRGB">
<feFlood flood-opacity="0" result="BackgroundImageFix"/>
<feBlend mode="normal" in="SourceGraphic" in2="BackgroundImageFix" result="shape"/>
<feGaussianBlur stdDeviation="0.25" result="effect1_foregroundBlur_8_4580"/>
</filter>
<filter id="filter2_f_8_4580" x="15.8459" y="3.74756" width="9.84497" height="6.85449" filterUnits="userSpaceOnUse" color-interpolation-filters="sRGB">
<feFlood flood-opacity="0" result="BackgroundImageFix"/>
<feBlend mode="normal" in="SourceGraphic" in2="BackgroundImageFix" result="shape"/>
<feGaussianBlur stdDeviation="0.25" result="effect1_foregroundBlur_8_4580"/>
</filter>
<filter id="filter3_i_8_4580" x="4" y="13.7922" width="24.4" height="1.87588" filterUnits="userSpaceOnUse" color-interpolation-filters="sRGB">
<feFlood flood-opacity="0" result="BackgroundImageFix"/>
<feBlend mode="normal" in="SourceGraphic" in2="BackgroundImageFix" result="shape"/>
<feColorMatrix in="SourceAlpha" type="matrix" values="0 0 0 0 0 0 0 0 0 0 0 0 0 0 0 0 0 0 127 0" result="hardAlpha"/>
<feOffset dx="0.4" dy="0.1"/>
<feGaussianBlur stdDeviation="0.25"/>
<feComposite in2="hardAlpha" operator="arithmetic" k2="-1" k3="1"/>
<feColorMatrix type="matrix" values="0 0 0 0 0.505882 0 0 0 0 0.486275 0 0 0 0 0.521569 0 0 0 1 0"/>
<feBlend mode="normal" in2="shape" result="effect1_innerShadow_8_4580"/>
</filter>
<filter id="filter4_i_8_4580" x="13.0787" y="18.2322" width="5.49282" height="6.56582" filterUnits="userSpaceOnUse" color-interpolation-filters="sRGB">
<feFlood flood-opacity="0" result="BackgroundImageFix"/>
<feBlend mode="normal" in="SourceGraphic" in2="BackgroundImageFix" result="shape"/>
<feColorMatrix in="SourceAlpha" type="matrix" values="0 0 0 0 0 0 0 0 0 0 0 0 0 0 0 0 0 0 127 0" result="hardAlpha"/>
<feOffset dx="-0.35" dy="0.35"/>
<feGaussianBlur stdDeviation="0.3"/>
<feComposite in2="hardAlpha" operator="arithmetic" k2="-1" k3="1"/>
<feColorMatrix type="matrix" values="0 0 0 0 0.117647 0 0 0 0 0.0784314 0 0 0 0 0.160784 0 0 0 1 0"/>
<feBlend mode="normal" in2="shape" result="effect1_innerShadow_8_4580"/>
</filter>
<filter id="filter5_ii_8_4580" x="11.3887" y="4.59478" width="9.18862" height="9.49746" filterUnits="userSpaceOnUse" color-interpolation-filters="sRGB">
<feFlood flood-opacity="0" result="BackgroundImageFix"/>
<feBlend mode="normal" in="SourceGraphic" in2="BackgroundImageFix" result="shape"/>
<feColorMatrix in="SourceAlpha" type="matrix" values="0 0 0 0 0 0 0 0 0 0 0 0 0 0 0 0 0 0 127 0" result="hardAlpha"/>
<feOffset dx="-0.3" dy="0.3"/>
<feGaussianBlur stdDeviation="0.5"/>
<feComposite in2="hardAlpha" operator="arithmetic" k2="-1" k3="1"/>
<feColorMatrix type="matrix" values="0 0 0 0 0.917647 0 0 0 0 0.878431 0 0 0 0 0.937255 0 0 0 1 0"/>
<feBlend mode="normal" in2="shape" result="effect1_innerShadow_8_4580"/>
<feColorMatrix in="SourceAlpha" type="matrix" values="0 0 0 0 0 0 0 0 0 0 0 0 0 0 0 0 0 0 127 0" result="hardAlpha"/>
<feOffset dx="0.3" dy="-0.3"/>
<feGaussianBlur stdDeviation="0.5"/>
<feComposite in2="hardAlpha" operator="arithmetic" k2="-1" k3="1"/>
<feColorMatrix type="matrix" values="0 0 0 0 0.454902 0 0 0 0 0.423529 0 0 0 0 0.501961 0 0 0 1 0"/>
<feBlend mode="normal" in2="effect1_innerShadow_8_4580" result="effect2_innerShadow_8_4580"/>
</filter>
<filter id="filter6_f_8_4580" x="14.1116" y="6.45806" width="3.28628" height="5.91763" filterUnits="userSpaceOnUse" color-interpolation-filters="sRGB">
<feFlood flood-opacity="0" result="BackgroundImageFix"/>
<feBlend mode="normal" in="SourceGraphic" in2="BackgroundImageFix" result="shape"/>
<feGaussianBlur stdDeviation="0.15" result="effect1_foregroundBlur_8_4580"/>
</filter>
<filter id="filter7_i_8_4580" x="14.543" y="6.42969" width="2.94141" height="5.57788" filterUnits="userSpaceOnUse" color-interpolation-filters="sRGB">
<feFlood flood-opacity="0" result="BackgroundImageFix"/>
<feBlend mode="normal" in="SourceGraphic" in2="BackgroundImageFix" result="shape"/>
<feColorMatrix in="SourceAlpha" type="matrix" values="0 0 0 0 0 0 0 0 0 0 0 0 0 0 0 0 0 0 127 0" result="hardAlpha"/>
<feOffset dx="0.25" dy="-0.25"/>
<feGaussianBlur stdDeviation="0.125"/>
<feComposite in2="hardAlpha" operator="arithmetic" k2="-1" k3="1"/>
<feColorMatrix type="matrix" values="0 0 0 0 0.333333 0 0 0 0 0.207843 0 0 0 0 0.47451 0 0 0 1 0"/>
<feBlend mode="normal" in2="shape" result="effect1_innerShadow_8_4580"/>
</filter>
<filter id="filter8_f_8_4580" x="14.6207" y="7.5418" width="2.63345" height="3.51846" filterUnits="userSpaceOnUse" color-interpolation-filters="sRGB">
<feFlood flood-opacity="0" result="BackgroundImageFix"/>
<feBlend mode="normal" in="SourceGraphic" in2="BackgroundImageFix" result="shape"/>
<feGaussianBlur stdDeviation="0.15" result="effect1_foregroundBlur_8_4580"/>
</filter>
<filter id="filter9_f_8_4580" x="15.7647" y="6.61626" width="0.749902" height="1.74795" filterUnits="userSpaceOnUse" color-interpolation-filters="sRGB">
<feFlood flood-opacity="0" result="BackgroundImageFix"/>
<feBlend mode="normal" in="SourceGraphic" in2="BackgroundImageFix" result="shape"/>
<feGaussianBlur stdDeviation="0.15" result="effect1_foregroundBlur_8_4580"/>
</filter>
<filter id="filter10_f_8_4580" x="15.7374" y="10.3604" width="0.749902" height="1.60928" filterUnits="userSpaceOnUse" color-interpolation-filters="sRGB">
<feFlood flood-opacity="0" result="BackgroundImageFix"/>
<feBlend mode="normal" in="SourceGraphic" in2="BackgroundImageFix" result="shape"/>
<feGaussianBlur stdDeviation="0.15" result="effect1_foregroundBlur_8_4580"/>
</filter>
<filter id="filter11_f_8_4580" x="6.40332" y="14.8184" width="2.21313" height="10.8315" filterUnits="userSpaceOnUse" color-interpolation-filters="sRGB">
<feFlood flood-opacity="0" result="BackgroundImageFix"/>
<feBlend mode="normal" in="SourceGraphic" in2="BackgroundImageFix" result="shape"/>
<feGaussianBlur stdDeviation="0.375" result="effect1_foregroundBlur_8_4580"/>
</filter>
<filter id="filter12_f_8_4580" x="20.8213" y="14.8184" width="2.21313" height="10.8315" filterUnits="userSpaceOnUse" color-interpolation-filters="sRGB">
<feFlood flood-opacity="0" result="BackgroundImageFix"/>
<feBlend mode="normal" in="SourceGraphic" in2="BackgroundImageFix" result="shape"/>
<feGaussianBlur stdDeviation="0.375" result="effect1_foregroundBlur_8_4580"/>
</filter>
<filter id="filter13_f_8_4580" x="9.75073" y="14.8184" width="2.21313" height="10.8315" filterUnits="userSpaceOnUse" color-interpolation-filters="sRGB">
<feFlood flood-opacity="0" result="BackgroundImageFix"/>
<feBlend mode="normal" in="SourceGraphic" in2="BackgroundImageFix" result="shape"/>
<feGaussianBlur stdDeviation="0.375" result="effect1_foregroundBlur_8_4580"/>
</filter>
<linearGradient id="paint0_linear_8_4580" x1="21.4105" y1="9.55003" x2="10.4284" y2="9.55003" gradientUnits="userSpaceOnUse">
<stop stop-color="#9E98A4"/>
<stop offset="1" stop-color="#847E89"/>
</linearGradient>
<linearGradient id="paint1_linear_8_4580" x1="21.1113" y1="8.24126" x2="20.6913" y2="8.89185" gradientUnits="userSpaceOnUse">
<stop offset="0.160967" stop-color="#56525D"/>
<stop offset="1" stop-color="#56525D" stop-opacity="0"/>
</linearGradient>
<linearGradient id="paint2_linear_8_4580" x1="11.071" y1="8.11617" x2="11.3742" y2="8.60709" gradientUnits="userSpaceOnUse">
<stop offset="0.457776" stop-color="#56525D"/>
<stop offset="1" stop-color="#56525D" stop-opacity="0"/>
</linearGradient>
<radialGradient id="paint3_radial_8_4580" cx="0" cy="0" r="1" gradientUnits="userSpaceOnUse" gradientTransform="translate(12.7788 9.54693) rotate(175.768) scale(2.10556 4.58797)">
<stop offset="0.348562" stop-color="#605D64"/>
<stop offset="1" stop-color="#605D64" stop-opacity="0"/>
</radialGradient>
<linearGradient id="paint4_linear_8_4580" x1="18.3346" y1="10.8667" x2="18.3346" y2="10.0734" gradientUnits="userSpaceOnUse">
<stop stop-color="#6D6870"/>
<stop offset="1" stop-color="#6D6870" stop-opacity="0"/>
</linearGradient>
<linearGradient id="paint5_linear_8_4580" x1="7.8348" y1="8.00812" x2="26.6583" y2="8.00812" gradientUnits="userSpaceOnUse">
<stop stop-color="#A7A0AB"/>
<stop offset="1" stop-color="#A9A2B2"/>
</linearGradient>
<linearGradient id="paint6_linear_8_4580" x1="21.7644" y1="7.2015" x2="21.1685" y2="8.12537" gradientUnits="userSpaceOnUse">
<stop stop-color="#DBD2E0"/>
<stop offset="1" stop-color="#DBD2E0" stop-opacity="0"/>
</linearGradient>
<radialGradient id="paint7_radial_8_4580" cx="0" cy="0" r="1" gradientUnits="userSpaceOnUse" gradientTransform="translate(16.0001 5.37356) rotate(90) scale(1.04061 1.49382)">
<stop stop-color="#7D797E"/>
<stop offset="1" stop-color="#9E97A1" stop-opacity="0"/>
</radialGradient>
<radialGradient id="paint8_radial_8_4580" cx="0" cy="0" r="1" gradientUnits="userSpaceOnUse" gradientTransform="translate(13.3867 8.7124) rotate(-137.838) scale(2.47608 2.90865)">
<stop offset="0.451274" stop-color="#605C64"/>
<stop offset="1" stop-color="#605C64" stop-opacity="0"/>
</radialGradient>
<linearGradient id="paint9_linear_8_4580" x1="6.44765" y1="10.4744" x2="12.3091" y2="6.81855" gradientUnits="userSpaceOnUse">
<stop stop-color="#B2AAB8"/>
<stop offset="1" stop-color="#B2AAB8" stop-opacity="0"/>
</linearGradient>
<linearGradient id="paint10_linear_8_4580" x1="16.5959" y1="4.49756" x2="25.3374" y2="9.89166" gradientUnits="userSpaceOnUse">
<stop stop-color="#DDD3E1" stop-opacity="0"/>
<stop offset="0.179503" stop-color="#DDD3E1"/>
<stop offset="0.822412" stop-color="#DDD3E1"/>
<stop offset="1" stop-color="#DDD3E1" stop-opacity="0"/>
</linearGradient>
<linearGradient id="paint11_linear_8_4580" x1="22.5356" y1="22.5919" x2="18.9463" y2="22.5919" gradientUnits="userSpaceOnUse">
<stop offset="0.416667" stop-color="#56525D"/>
<stop offset="1" stop-color="#55505C" stop-opacity="0"/>
</linearGradient>
<linearGradient id="paint12_linear_8_4580" x1="8.36616" y1="22.5919" x2="12.2317" y2="22.5919" gradientUnits="userSpaceOnUse">
<stop stop-color="#4B4750"/>
<stop offset="1" stop-color="#4B4750" stop-opacity="0"/>
</linearGradient>
<linearGradient id="paint13_linear_8_4580" x1="18.9463" y1="15.1551" x2="18.9463" y2="17.4305" gradientUnits="userSpaceOnUse">
<stop stop-color="#645A6D"/>
<stop offset="1" stop-color="#645A6D" stop-opacity="0"/>
</linearGradient>
<linearGradient id="paint14_linear_8_4580" x1="23.7141" y1="20.2903" x2="25.9641" y2="20.2903" gradientUnits="userSpaceOnUse">
<stop stop-color="#726C75"/>
<stop offset="1" stop-color="#BFB7C6"/>
</linearGradient>
<linearGradient id="paint15_linear_8_4580" x1="23.4214" y1="19.7749" x2="24.5599" y2="19.7749" gradientUnits="userSpaceOnUse">
<stop stop-color="#76727B"/>
<stop offset="1" stop-color="#76727B" stop-opacity="0"/>
</linearGradient>
<linearGradient id="paint16_linear_8_4580" x1="26.5862" y1="19.4738" x2="24.9998" y2="19.4738" gradientUnits="userSpaceOnUse">
<stop stop-color="#E4DBEA"/>
<stop offset="1" stop-color="#E4DBEA" stop-opacity="0"/>
</linearGradient>
<radialGradient id="paint17_radial_8_4580" cx="0" cy="0" r="1" gradientUnits="userSpaceOnUse" gradientTransform="translate(25.3299 23.2525) rotate(-90) scale(8.397 5.51323)">
<stop offset="0.822712" stop-color="#655E71" stop-opacity="0"/>
<stop offset="0.950544" stop-color="#655E71"/>
</radialGradient>
<linearGradient id="paint18_linear_8_4580" x1="20.2859" y1="20.3115" x2="22.5359" y2="20.3115" gradientUnits="userSpaceOnUse">
<stop stop-color="#8C8693"/>
<stop offset="1" stop-color="#9E99A5"/>
</linearGradient>
<linearGradient id="paint19_linear_8_4580" x1="19.9932" y1="19.7962" x2="21.1316" y2="19.7962" gradientUnits="userSpaceOnUse">
<stop stop-color="#76727B"/>
<stop offset="1" stop-color="#76727B" stop-opacity="0"/>
</linearGradient>
<linearGradient id="paint20_linear_8_4580" x1="23.158" y1="19.495" x2="22.2694" y2="19.495" gradientUnits="userSpaceOnUse">
<stop stop-color="#A09AA5"/>
<stop offset="1" stop-color="#A09AA5" stop-opacity="0"/>
</linearGradient>
<radialGradient id="paint21_radial_8_4580" cx="0" cy="0" r="1" gradientUnits="userSpaceOnUse" gradientTransform="translate(21.9017 23.2737) rotate(-90) scale(8.397 3.24813)">
<stop offset="0.782101" stop-color="#655E71" stop-opacity="0"/>
<stop offset="1" stop-color="#655E71"/>
</radialGradient>
<linearGradient id="paint22_linear_8_4580" x1="8.14065" y1="20.2108" x2="10.7121" y2="20.2108" gradientUnits="userSpaceOnUse">
<stop stop-color="#9B9B9B"/>
<stop offset="1" stop-color="#D3D3D3"/>
</linearGradient>
<linearGradient id="paint23_linear_8_4580" x1="9.14282" y1="20.2108" x2="11.3928" y2="20.2108" gradientUnits="userSpaceOnUse">
<stop stop-color="#79747E"/>
<stop offset="1" stop-color="#A09BA7"/>
</linearGradient>
<linearGradient id="paint24_linear_8_4580" x1="8.85009" y1="19.7042" x2="9.98852" y2="19.7042" gradientUnits="userSpaceOnUse">
<stop stop-color="#76727B"/>
<stop offset="1" stop-color="#76727B" stop-opacity="0"/>
</linearGradient>
<linearGradient id="paint25_linear_8_4580" x1="12.0149" y1="19.4082" x2="10.7927" y2="19.4082" gradientUnits="userSpaceOnUse">
<stop stop-color="#B8B1BF"/>
<stop offset="1" stop-color="#B8B1BF" stop-opacity="0"/>
</linearGradient>
<radialGradient id="paint26_radial_8_4580" cx="0" cy="0" r="1" gradientUnits="userSpaceOnUse" gradientTransform="translate(10.7586 23.1224) rotate(-90) scale(8.25376 3.24813)">
<stop offset="0.782101" stop-color="#655E71" stop-opacity="0"/>
<stop offset="1" stop-color="#655E71"/>
</radialGradient>
<linearGradient id="paint27_linear_8_4580" x1="5.71436" y1="20.2108" x2="7.96436" y2="20.2108" gradientUnits="userSpaceOnUse">
<stop stop-color="#8C8693"/>
<stop offset="1" stop-color="#9E99A5"/>
</linearGradient>
<linearGradient id="paint28_linear_8_4580" x1="5.42162" y1="19.7042" x2="6.56006" y2="19.7042" gradientUnits="userSpaceOnUse">
<stop stop-color="#76727B"/>
<stop offset="1" stop-color="#76727B" stop-opacity="0"/>
</linearGradient>
<linearGradient id="paint29_linear_8_4580" x1="8.58651" y1="19.4082" x2="7.69787" y2="19.4082" gradientUnits="userSpaceOnUse">
<stop stop-color="#A09AA5"/>
<stop offset="1" stop-color="#A09AA5" stop-opacity="0"/>
</linearGradient>
<radialGradient id="paint30_radial_8_4580" cx="0" cy="0" r="1" gradientUnits="userSpaceOnUse" gradientTransform="translate(7.33016 23.1224) rotate(-90) scale(8.25376 3.24813)">
<stop offset="0.782101" stop-color="#655E71" stop-opacity="0"/>
<stop offset="1" stop-color="#655E71"/>
</radialGradient>
<linearGradient id="paint31_linear_8_4580" x1="7.64941" y1="12.8253" x2="27.1419" y2="12.8253" gradientUnits="userSpaceOnUse">
<stop stop-color="#A59FAC"/>
<stop offset="1" stop-color="#AFA8B6"/>
</linearGradient>
<linearGradient id="paint32_linear_8_4580" x1="15.9991" y1="12.0107" x2="15.9991" y2="12.3774" gradientUnits="userSpaceOnUse">
<stop stop-color="#676071"/>
<stop offset="1" stop-color="#676071" stop-opacity="0"/>
</linearGradient>
<linearGradient id="paint33_linear_8_4580" x1="4.67096" y1="12.9751" x2="5.93926" y2="12.9751" gradientUnits="userSpaceOnUse">
<stop stop-color="#7E7881"/>
<stop offset="1" stop-color="#7E7881" stop-opacity="0"/>
</linearGradient>
<radialGradient id="paint34_radial_8_4580" cx="0" cy="0" r="1" gradientUnits="userSpaceOnUse" gradientTransform="translate(14.018 12.0107) rotate(127.232) scale(2.34634 4.68696)">
<stop offset="0.389474" stop-color="#645D6E"/>
<stop offset="1" stop-color="#645D6E" stop-opacity="0"/>
</radialGradient>
<linearGradient id="paint35_linear_8_4580" x1="18.3039" y1="14.3817" x2="18.3039" y2="13.5761" gradientUnits="userSpaceOnUse">
<stop stop-color="#5D5A61"/>
<stop offset="1" stop-color="#5D5A61" stop-opacity="0"/>
</linearGradient>
<linearGradient id="paint36_linear_8_4580" x1="27.1419" y1="13.1962" x2="26.4393" y2="13.1962" gradientUnits="userSpaceOnUse">
<stop stop-color="#DBD2E1"/>
<stop offset="1" stop-color="#DBD2E1" stop-opacity="0"/>
</linearGradient>
<linearGradient id="paint37_linear_8_4580" x1="15.9979" y1="10.2386" x2="15.9979" y2="12.0165" gradientUnits="userSpaceOnUse">
<stop stop-color="#C9C0CE"/>
<stop offset="1" stop-color="#A09AAC"/>
</linearGradient>
<linearGradient id="paint38_linear_8_4580" x1="6.51786" y1="12.0165" x2="16" y2="12.0165" gradientUnits="userSpaceOnUse">
<stop stop-color="#B0A8B4"/>
<stop offset="1" stop-color="#B0A8B4" stop-opacity="0"/>
</linearGradient>
<linearGradient id="paint39_linear_8_4580" x1="15.009" y1="12.2418" x2="15.009" y2="11.1285" gradientUnits="userSpaceOnUse">
<stop stop-color="#7C7586"/>
<stop offset="1" stop-color="#7C7586" stop-opacity="0"/>
</linearGradient>
<linearGradient id="paint40_linear_8_4580" x1="4" y1="11.1285" x2="5.05804" y2="11.1285" gradientUnits="userSpaceOnUse">
<stop stop-color="#7C7586"/>
<stop offset="1" stop-color="#7C7586" stop-opacity="0"/>
</linearGradient>
<radialGradient id="paint41_radial_8_4580" cx="0" cy="0" r="1" gradientUnits="userSpaceOnUse" gradientTransform="translate(12.4107 10.4805) rotate(152.4) scale(1.39867 3.8176)">
<stop offset="0.210969" stop-color="#685F73"/>
<stop offset="1" stop-color="#685F73" stop-opacity="0"/>
</radialGradient>
<radialGradient id="paint42_radial_8_4580" cx="0" cy="0" r="1" gradientUnits="userSpaceOnUse" gradientTransform="translate(23.104 9.26166) rotate(94.0897) scale(2.35654 12.0192)">
<stop stop-color="#CBC3D2"/>
<stop offset="1" stop-color="#CBC3D2" stop-opacity="0"/>
</radialGradient>
<radialGradient id="paint43_radial_8_4580" cx="0" cy="0" r="1" gradientUnits="userSpaceOnUse" gradientTransform="translate(27.8729 10.5131) rotate(-39.2788) scale(1.03132 0.936791)">
<stop stop-color="#F6EBFC"/>
<stop offset="1" stop-color="#F6EBFC" stop-opacity="0"/>
</radialGradient>
<linearGradient id="paint44_linear_8_4580" x1="15.9979" y1="13.7904" x2="15.9979" y2="15.5682" gradientUnits="userSpaceOnUse">
<stop stop-color="#C8C0CE"/>
<stop offset="1" stop-color="#948B9F"/>
</linearGradient>
<linearGradient id="paint45_linear_8_4580" x1="3.72761" y1="15.5682" x2="4.90408" y2="15.5682" gradientUnits="userSpaceOnUse">
<stop stop-color="#79747E"/>
<stop offset="1" stop-color="#79747E" stop-opacity="0"/>
</linearGradient>
<linearGradient id="paint46_linear_8_4580" x1="14.994" y1="16.0987" x2="14.994" y2="14.9332" gradientUnits="userSpaceOnUse">
<stop stop-color="#787182"/>
<stop offset="1" stop-color="#787182" stop-opacity="0"/>
</linearGradient>
<radialGradient id="paint47_radial_8_4580" cx="0" cy="0" r="1" gradientUnits="userSpaceOnUse" gradientTransform="translate(15.4509 12.6994) rotate(90) scale(1.88696 3.37888)">
<stop offset="0.571377" stop-color="#4E4B52"/>
<stop offset="1" stop-color="#6E6A72" stop-opacity="0"/>
</radialGradient>
<radialGradient id="paint48_radial_8_4580" cx="0" cy="0" r="1" gradientUnits="userSpaceOnUse" gradientTransform="translate(27.8729 14.0648) rotate(-39.2788) scale(1.03132 0.936791)">
<stop stop-color="#F6EBFC"/>
<stop offset="1" stop-color="#F6EBFC" stop-opacity="0"/>
</radialGradient>
<linearGradient id="paint49_linear_8_4580" x1="15.0024" y1="26.2241" x2="15.0024" y2="28.0001" gradientUnits="userSpaceOnUse">
<stop stop-color="#C0B9C6"/>
<stop offset="1" stop-color="#BFB8C7"/>
</linearGradient>
<linearGradient id="paint50_linear_8_4580" x1="16" y1="25.8487" x2="16" y2="27.3514" gradientUnits="userSpaceOnUse">
<stop offset="0.70802" stop-color="#CBC3D2"/>
<stop offset="1" stop-color="#CBC3D2" stop-opacity="0"/>
</linearGradient>
<linearGradient id="paint51_linear_8_4580" x1="3.89409" y1="28.0001" x2="5.10151" y2="28.0001" gradientUnits="userSpaceOnUse">
<stop stop-color="#79737C"/>
<stop offset="1" stop-color="#79737C" stop-opacity="0"/>
</linearGradient>
<linearGradient id="paint52_linear_8_4580" x1="28.4883" y1="27.1121" x2="26.8165" y2="27.1121" gradientUnits="userSpaceOnUse">
<stop stop-color="#FFF6FF"/>
<stop offset="1" stop-color="#FFF6FF" stop-opacity="0"/>
</linearGradient>
<linearGradient id="paint53_linear_8_4580" x1="13.4287" y1="22.9031" x2="14.3989" y2="22.9031" gradientUnits="userSpaceOnUse">
<stop stop-color="#4F4461"/>
<stop offset="1" stop-color="#4F4461" stop-opacity="0"/>
</linearGradient>
<radialGradient id="paint54_radial_8_4580" cx="0" cy="0" r="1" gradientUnits="userSpaceOnUse" gradientTransform="translate(15.2693 10.1067) rotate(-36.1398) scale(6.20118 6.2718)">
<stop offset="0.692738" stop-color="#EBE1F1" stop-opacity="0"/>
<stop offset="1" stop-color="#EBE1F1"/>
</radialGradient>
<linearGradient id="paint55_linear_8_4580" x1="7.50988" y1="23.5812" x2="7.50988" y2="11.8492" gradientUnits="userSpaceOnUse">
<stop stop-color="#D2C9D7"/>
<stop offset="1" stop-color="#D2C9D7" stop-opacity="0"/>
</linearGradient>
<linearGradient id="paint56_linear_8_4580" x1="21.9279" y1="23.5812" x2="21.9279" y2="11.8492" gradientUnits="userSpaceOnUse">
<stop stop-color="#D2C9D7"/>
<stop offset="1" stop-color="#D2C9D7" stop-opacity="0"/>
</linearGradient>
<linearGradient id="paint57_linear_8_4580" x1="10.8573" y1="23.5812" x2="10.8573" y2="11.8492" gradientUnits="userSpaceOnUse">
<stop offset="0.33137" stop-color="#CEC5D4"/>
<stop offset="1" stop-color="#CEC5D4" stop-opacity="0"/>
</linearGradient>
<linearGradient id="paint58_linear_8_4580" x1="15.0595" y1="24.448" x2="15.0595" y2="26.224" gradientUnits="userSpaceOnUse">
<stop stop-color="#C0B9C6"/>
<stop offset="1" stop-color="#BFB8C7"/>
</linearGradient>
<linearGradient id="paint59_linear_8_4580" x1="15.987" y1="24.0726" x2="15.987" y2="25.5753" gradientUnits="userSpaceOnUse">
<stop offset="0.70802" stop-color="#CBC3D2"/>
<stop offset="1" stop-color="#CBC3D2" stop-opacity="0"/>
</linearGradient>
<linearGradient id="paint60_linear_8_4580" x1="4.73285" y1="26.224" x2="5.85531" y2="26.224" gradientUnits="userSpaceOnUse">
<stop stop-color="#79737C"/>
<stop offset="1" stop-color="#79737C" stop-opacity="0"/>
</linearGradient>
<linearGradient id="paint61_linear_8_4580" x1="27.5967" y1="25.336" x2="26.0425" y2="25.336" gradientUnits="userSpaceOnUse">
<stop stop-color="#FFF6FF"/>
<stop offset="1" stop-color="#FFF6FF" stop-opacity="0"/>
</linearGradient>
<linearGradient id="paint62_linear_8_4580" x1="15.987" y1="26.6157" x2="15.987" y2="26.1162" gradientUnits="userSpaceOnUse">
<stop stop-color="#817B84"/>
<stop offset="1" stop-color="#817B84" stop-opacity="0"/>
</linearGradient>
</defs>
</svg>
