<svg width="60" height="24" viewBox="0 0 60 24" fill="none" xmlns="http://www.w3.org/2000/svg">
<rect width="60" height="24" rx="4" fill="#EC5B24"/>
<path fill-rule="evenodd" clip-rule="evenodd" d="M8 3.80139C8 3.30443 8.17886 2.87995 8.53683 2.52809C8.89481 2.17611 9.32643 2 9.83196 2C10.3376 2 10.7689 2.17611 11.1267 2.52809C11.4847 2.87995 11.6638 3.30443 11.6638 3.80139C11.6638 4.29836 11.4847 4.72273 11.1267 5.07472C10.7689 5.42656 10.3371 5.60242 9.83196 5.60242C9.32678 5.60242 8.89481 5.42656 8.53683 5.07472C8.17886 4.72273 8 4.29812 8 3.80139ZM8.2526 6.96899H11.4111V17.031H8.2526V6.96899ZM24.3568 3.80139C24.3568 3.30443 24.5357 2.87995 24.8936 2.52809C25.2516 2.17611 25.6834 2 26.1887 2C26.694 2 27.1256 2.17611 27.4837 2.52809C27.8415 2.87995 28.0205 3.30443 28.0205 3.80139C28.0205 4.29836 27.8414 4.72273 27.4837 5.07472C27.1256 5.42656 26.6939 5.60242 26.1887 5.60242C25.6834 5.60242 25.2516 5.42656 24.8936 5.07472C24.5357 4.72273 24.3568 4.29812 24.3568 3.80139ZM24.6094 6.96899H27.768V17.031H24.6094V6.96899ZM31.7774 11.9379C31.7774 12.2693 31.8402 12.5833 31.9667 12.88C32.0932 13.1766 32.272 13.439 32.5037 13.6667C32.7355 13.8943 33.002 14.0774 33.3039 14.2155C33.6057 14.3534 33.9391 14.4223 34.3042 14.4223C34.6693 14.4223 34.9849 14.3534 35.2937 14.2155C35.6026 14.0774 35.8729 13.8945 36.1043 13.6667C36.3359 13.4391 36.5152 13.1767 36.6413 12.88C36.7676 12.5832 36.8307 12.2693 36.8307 11.9379C36.8307 11.6066 36.7677 11.2926 36.6413 10.996C36.5152 10.6992 36.3359 10.4369 36.1043 10.2092C35.8729 9.98158 35.6026 9.7987 35.2937 9.66044C34.9849 9.52253 34.6551 9.45347 34.3042 9.45347C33.9533 9.45347 33.6057 9.52253 33.3039 9.66044C33.002 9.7987 32.7355 9.98144 32.5037 10.2092C32.272 10.437 32.0932 10.6992 31.9667 10.996C31.8402 11.2926 31.7774 11.6066 31.7774 11.9379ZM39.7366 16.1821C39.7366 18.087 39.2487 19.5326 38.2731 20.5195C37.2976 21.5066 35.8129 22 33.8198 22C32.9074 22 32.009 21.9 31.1246 21.6998C30.2401 21.4996 29.4261 21.1097 28.6818 20.53L30.4298 17.9627C30.921 18.363 31.4368 18.6805 31.9773 18.9151C32.5178 19.1499 33.1107 19.2672 33.7565 19.2672C34.7253 19.2672 35.4376 19.0359 35.8939 18.5735C36.3502 18.111 36.578 17.5209 36.578 16.8035V15.8304H36.5358C36.1709 16.3134 35.7183 16.6552 35.1779 16.8552C34.6373 17.0555 34.1285 17.1554 33.6512 17.1554C32.893 17.1554 32.2052 17.0275 31.5877 16.7723C30.9701 16.517 30.4402 16.158 29.9979 15.6957C29.5558 15.2335 29.2154 14.6847 28.9768 14.0498C28.7381 13.4149 28.6188 12.7181 28.6188 11.9587C28.6188 11.2964 28.7275 10.6475 28.9451 10.0126C29.1628 9.37765 29.4715 8.8187 29.8716 8.33549C30.2717 7.85249 30.7596 7.4625 31.335 7.16586C31.9106 6.86915 32.5632 6.72087 33.2932 6.72087C33.7424 6.72087 34.1532 6.76918 34.5252 6.86561C34.8972 6.96223 35.2304 7.0865 35.5253 7.23819C35.8203 7.39003 36.0728 7.5592 36.2834 7.74542C36.4941 7.93179 36.6624 8.11474 36.7888 8.29414H36.8307V6.96913H39.7367L39.7366 16.1821ZM43.7879 12C43.7879 12.7593 44.0089 13.3733 44.4512 13.8426C44.8935 14.3119 45.5146 14.5466 46.3146 14.5466C47.1146 14.5466 47.7361 14.3119 48.178 13.8426C48.6202 13.3733 48.8413 12.7593 48.8413 12C48.8413 11.2406 48.6202 10.6266 48.178 10.1574C47.7359 9.68801 47.1148 9.45333 46.3146 9.45333C45.5144 9.45333 44.8935 9.68801 44.4512 10.1574C44.0089 10.6266 43.7879 11.2407 43.7879 12ZM40.6295 12C40.6295 11.1995 40.7769 10.4749 41.0716 9.82606C41.3663 9.1773 41.7699 8.62169 42.2823 8.1593C42.7946 7.69684 43.3985 7.34144 44.0932 7.09319C44.7881 6.84472 45.5285 6.72059 46.3146 6.72059C47.1006 6.72059 47.8411 6.84472 48.5362 7.09319C49.2312 7.34158 49.8346 7.69697 50.347 8.1593C50.8593 8.62169 51.2631 9.1773 51.5578 9.82606C51.8524 10.4749 52 11.1995 52 12C52 12.8004 51.8524 13.5251 51.5578 14.174C51.2631 14.8226 50.8593 15.3782 50.347 15.8405C49.8346 16.3031 49.2312 16.6583 48.5362 16.9068C47.8412 17.1553 47.1008 17.2794 46.3146 17.2794C45.5284 17.2794 44.7881 17.1553 44.0932 16.9068C43.3983 16.6583 42.7946 16.3031 42.2823 15.8405C41.7699 15.3781 41.3663 14.8225 41.0716 14.174C40.7769 13.5251 40.6295 12.8006 40.6295 12Z" fill="white"/>
<path fill-rule="evenodd" clip-rule="evenodd" d="M16.0309 11.648L12.6197 6.96899H16.3468L18.1577 9.70179L19.9054 6.96899H23.4217L20.0948 11.648L24.0324 17.0309H20.3053L18.0733 13.677L15.6729 17.0309H11.9881L16.0309 11.648Z" fill="white"/>
<path d="M10.1467 17V6.70771H13.5176C14.5583 6.70771 15.4655 6.91954 16.2391 7.3432C17.0128 7.76687 17.6114 8.36553 18.0351 9.13917C18.4588 9.90361 18.6706 10.8062 18.6706 11.8469C18.6706 12.8785 18.4588 13.7811 18.0351 14.5547C17.6114 15.3284 17.0128 15.9316 16.2391 16.3645C15.4655 16.7882 14.5583 17 13.5176 17H10.1467ZM11.5005 15.7566H13.5314C14.2958 15.7566 14.9543 15.5955 15.5069 15.2731C16.0688 14.9508 16.5016 14.4995 16.8056 13.9192C17.1095 13.3298 17.2615 12.639 17.2615 11.8469C17.2615 11.0457 17.1049 10.3549 16.7917 9.77467C16.4878 9.19444 16.0549 8.74774 15.4931 8.4346C14.9405 8.11225 14.2866 7.95107 13.5314 7.95107H11.5005V15.7566ZM23.5226 17.1658C22.8043 17.1658 22.1642 16.9954 21.6023 16.6546C21.0405 16.3138 20.5984 15.8487 20.2761 15.2593C19.9537 14.6606 19.7926 13.9929 19.7926 13.2561C19.7926 12.5101 19.9491 11.8469 20.2623 11.2667C20.5846 10.6865 21.0175 10.2306 21.5609 9.89901C22.1135 9.55823 22.7306 9.38785 23.4121 9.38785C23.9647 9.38785 24.4529 9.48916 24.8765 9.69178C25.3094 9.88519 25.6732 10.1523 25.9679 10.4931C26.2719 10.8246 26.5021 11.2068 26.6587 11.6397C26.8245 12.0634 26.9074 12.5055 26.9074 12.966C26.9074 13.0673 26.8981 13.1824 26.8797 13.3114C26.8705 13.4311 26.8567 13.5462 26.8383 13.6567H20.732V12.5515H26.0923L25.4844 13.0489C25.5673 12.5699 25.5212 12.1417 25.3462 11.7641C25.1713 11.3864 24.9134 11.0871 24.5726 10.8661C24.2318 10.645 23.845 10.5345 23.4121 10.5345C22.9792 10.5345 22.5832 10.645 22.224 10.8661C21.8648 11.0871 21.5839 11.4049 21.3813 11.8193C21.1879 12.2246 21.1096 12.7081 21.1464 13.2699C21.1096 13.8133 21.1925 14.2922 21.3951 14.7067C21.6069 15.1119 21.9017 15.4297 22.2793 15.6599C22.6661 15.881 23.0852 15.9915 23.5365 15.9915C24.0338 15.9915 24.4529 15.8764 24.7936 15.6461C25.1344 15.4159 25.4107 15.1211 25.6226 14.7619L26.7001 15.3146C26.5528 15.6553 26.3225 15.9685 26.0094 16.254C25.7054 16.5303 25.3416 16.7513 24.918 16.9171C24.5035 17.0829 24.0384 17.1658 23.5226 17.1658ZM28.4444 17V9.55363H29.7016V11.0733L29.522 10.8384C29.7062 10.3687 30.0009 10.0095 30.4062 9.76086C30.8114 9.51218 31.2673 9.38785 31.7739 9.38785C32.3541 9.38785 32.8745 9.54902 33.335 9.87138C33.8047 10.1937 34.127 10.6174 34.302 11.1424L33.9428 11.1562C34.1363 10.576 34.4632 10.1385 34.9237 9.84375C35.3842 9.53981 35.8954 9.38785 36.4572 9.38785C36.973 9.38785 37.4381 9.50758 37.8525 9.74704C38.2762 9.9865 38.6124 10.3181 38.861 10.7417C39.1097 11.1654 39.234 11.6443 39.234 12.1785V17H37.9354V12.593C37.9354 12.1785 37.8617 11.8285 37.7144 11.543C37.567 11.2575 37.3644 11.0365 37.1065 10.8799C36.8578 10.7141 36.5631 10.6312 36.2223 10.6312C35.8908 10.6312 35.5914 10.7141 35.3244 10.8799C35.0665 11.0365 34.8592 11.2621 34.7027 11.5568C34.5553 11.8423 34.4816 12.1877 34.4816 12.593V17H33.183V12.593C33.183 12.1785 33.1093 11.8285 32.962 11.543C32.8146 11.2575 32.612 11.0365 32.3541 10.8799C32.1054 10.7141 31.8107 10.6312 31.4699 10.6312C31.1384 10.6312 30.839 10.7141 30.5719 10.8799C30.3141 11.0365 30.1068 11.2621 29.9503 11.5568C29.8029 11.8423 29.7292 12.1877 29.7292 12.593V17H28.4444ZM44.4574 17.1658C43.739 17.1658 43.0897 17 42.5094 16.6684C41.9292 16.3277 41.4687 15.8626 41.1279 15.2731C40.7871 14.6837 40.6167 14.0159 40.6167 13.2699C40.6167 12.5239 40.7825 11.8608 41.1141 11.2805C41.4549 10.7003 41.9154 10.2398 42.4956 9.89901C43.0758 9.55823 43.7298 9.38785 44.4574 9.38785C45.1757 9.38785 45.8251 9.55823 46.4053 9.89901C46.9855 10.2306 47.4414 10.6865 47.773 11.2667C48.1138 11.8469 48.2842 12.5147 48.2842 13.2699C48.2842 14.0251 48.1092 14.6975 47.7592 15.2869C47.4092 15.8672 46.9441 16.3277 46.3639 16.6684C45.7928 17 45.1573 17.1658 44.4574 17.1658ZM44.4574 15.9224C44.9179 15.9224 45.3323 15.8073 45.7007 15.577C46.0783 15.3468 46.3731 15.029 46.5849 14.6238C46.8059 14.2185 46.9165 13.7673 46.9165 13.2699C46.9165 12.7634 46.8059 12.3167 46.5849 11.9298C46.3731 11.5338 46.0783 11.2207 45.7007 10.9904C45.3323 10.7509 44.9179 10.6312 44.4574 10.6312C43.9876 10.6312 43.564 10.7509 43.1864 10.9904C42.818 11.2207 42.5232 11.5338 42.3022 11.9298C42.0812 12.3167 41.9706 12.7634 41.9706 13.2699C41.9706 13.7673 42.0812 14.2185 42.3022 14.6238C42.5232 15.029 42.818 15.3468 43.1864 15.577C43.564 15.8073 43.9876 15.9224 44.4574 15.9224Z" fill="#EC5B24" fill-opacity="0.3"/>
</svg>
