<svg width="223" height="214" viewBox="0 0 223 214" fill="none" xmlns="http://www.w3.org/2000/svg">
<g opacity="0.4">
<path d="M192.968 105.782C192.968 150.643 156.601 187.01 111.74 187.01C66.8796 187.01 30.5127 150.643 30.5127 105.782C30.5127 60.9211 66.8796 24.5542 111.74 24.5542C156.601 24.5542 192.968 60.9211 192.968 105.782Z" stroke="#005B9B" stroke-opacity="0.4"/>
<path d="M169.006 105.663C169.006 137.225 143.42 162.811 111.858 162.811C80.2961 162.811 54.71 137.225 54.71 105.663C54.71 74.101 80.2961 48.5149 111.858 48.5149C143.42 48.5149 169.006 74.101 169.006 105.663Z" stroke="#005B9B" stroke-opacity="0.4"/>
<path d="M215.979 105.782C215.979 163.352 169.309 210.021 111.74 210.021C54.1696 210.021 7.5 163.352 7.5 105.782C7.5 48.2121 54.1696 1.54248 111.74 1.54248C169.309 1.54248 215.979 48.2121 215.979 105.782Z" stroke="#005B9B" stroke-opacity="0.4"/>
<rect x="161.914" y="8.15918" width="15.1831" height="15.1831" rx="7.59154" fill="white"/>
<rect x="162.414" y="8.65918" width="14.1831" height="14.1831" rx="7.09154" stroke="black" stroke-opacity="0.1"/>
<rect x="162.414" y="8.65918" width="14.1831" height="14.1831" rx="7.09154" stroke="#005B9B" stroke-opacity="0.6"/>
<g clip-path="url(#clip0_165_25811)">
<path d="M171.627 16.9625C171.626 17.3318 171.479 17.6859 171.218 17.947C170.957 18.2082 170.603 18.3551 170.234 18.3556H169.688V18.9008C169.688 18.9489 169.669 18.9952 169.635 19.0292C169.601 19.0633 169.555 19.0825 169.507 19.0825C169.459 19.0825 169.412 19.0633 169.378 19.0292C169.344 18.9952 169.325 18.9489 169.325 18.9008V18.3556H168.78C168.411 18.3551 168.056 18.2082 167.795 17.947C167.534 17.6859 167.387 17.3318 167.387 16.9625C167.387 16.9143 167.406 16.8681 167.44 16.834C167.474 16.7999 167.52 16.7808 167.568 16.7808C167.617 16.7808 167.663 16.7999 167.697 16.834C167.731 16.8681 167.75 16.9143 167.75 16.9625C167.75 17.2356 167.859 17.4975 168.052 17.6906C168.245 17.8837 168.507 17.9922 168.78 17.9922H170.234C170.507 17.9922 170.769 17.8837 170.962 17.6906C171.155 17.4975 171.263 17.2356 171.263 16.9625C171.263 16.6894 171.155 16.4275 170.962 16.2344C170.769 16.0413 170.507 15.9328 170.234 15.9328H169.022C168.653 15.9328 168.298 15.786 168.037 15.5247C167.776 15.2635 167.629 14.9091 167.629 14.5397C167.629 14.1702 167.776 13.8158 168.037 13.5546C168.298 13.2933 168.653 13.1465 169.022 13.1465H169.325V12.6014C169.325 12.5532 169.344 12.507 169.378 12.4729C169.412 12.4388 169.459 12.4197 169.507 12.4197C169.555 12.4197 169.601 12.4388 169.635 12.4729C169.669 12.507 169.688 12.5532 169.688 12.6014V13.1465H169.991C170.361 13.147 170.715 13.2939 170.976 13.5551C171.237 13.8163 171.384 14.1703 171.384 14.5397C171.384 14.5878 171.365 14.6341 171.331 14.6681C171.297 14.7022 171.251 14.7214 171.203 14.7214C171.154 14.7214 171.108 14.7022 171.074 14.6681C171.04 14.6341 171.021 14.5878 171.021 14.5397C171.021 14.2666 170.912 14.0047 170.719 13.8115C170.526 13.6184 170.264 13.51 169.991 13.51H169.022C168.749 13.51 168.487 13.6184 168.294 13.8115C168.101 14.0047 167.992 14.2666 167.992 14.5397C167.992 14.8127 168.101 15.0747 168.294 15.2678C168.487 15.4609 168.749 15.5694 169.022 15.5694H170.234C170.603 15.5698 170.957 15.7168 171.218 15.9779C171.479 16.2391 171.626 16.5932 171.627 16.9625Z" fill="url(#paint0_linear_165_25811)"/>
</g>
<rect x="51.6006" y="6.26123" width="15.1831" height="15.1831" rx="7.59154" fill="white"/>
<rect x="52.1006" y="6.76123" width="14.1831" height="14.1831" rx="7.09154" stroke="#005B9B" stroke-opacity="0.6"/>
<path d="M61.3936 12.2376C61.3936 12.2858 61.3745 12.332 61.3404 12.3661C61.3063 12.4002 61.2601 12.4193 61.2119 12.4193H60.1728C60.179 12.4797 60.1822 12.5403 60.1822 12.601C60.1817 13.0667 59.9964 13.5132 59.6671 13.8425C59.3378 14.1718 58.8914 14.357 58.4257 14.3576H57.8054L60.1217 16.4642C60.1573 16.4967 60.1786 16.542 60.1809 16.5901C60.1832 16.6383 60.1662 16.6854 60.1338 16.7211C60.1013 16.7567 60.056 16.778 60.0079 16.7803C59.9597 16.7826 59.9126 16.7656 59.877 16.7332L57.2118 14.3103C57.1846 14.2856 57.1655 14.2532 57.1571 14.2173C57.1487 14.1815 57.1514 14.144 57.1648 14.1097C57.1782 14.0755 57.2017 14.0461 57.2321 14.0254C57.2626 14.0048 57.2986 13.9939 57.3354 13.9942H58.4257C58.795 13.9937 59.1491 13.8468 59.4102 13.5856C59.6714 13.3244 59.8183 12.9704 59.8188 12.601C59.8186 12.5403 59.8146 12.4796 59.8067 12.4193H57.3354C57.2872 12.4193 57.241 12.4002 57.2069 12.3661C57.1728 12.332 57.1537 12.2858 57.1537 12.2376C57.1537 12.1894 57.1728 12.1432 57.2069 12.1091C57.241 12.075 57.2872 12.0559 57.3354 12.0559H59.7077C59.6005 11.8046 59.4218 11.5902 59.1939 11.4395C58.966 11.2888 58.6989 11.2082 58.4257 11.2079H57.3354C57.2872 11.2079 57.241 11.1888 57.2069 11.1547C57.1728 11.1206 57.1537 11.0744 57.1537 11.0262C57.1537 10.978 57.1728 10.9318 57.2069 10.8977C57.241 10.8636 57.2872 10.8445 57.3354 10.8445H61.2119C61.2601 10.8445 61.3063 10.8636 61.3404 10.8977C61.3745 10.9318 61.3936 10.978 61.3936 11.0262C61.3936 11.0744 61.3745 11.1206 61.3404 11.1547C61.3063 11.1888 61.2601 11.2079 61.2119 11.2079H59.4938C59.775 11.4237 59.9846 11.7192 60.0953 12.0559H61.2119C61.2601 12.0559 61.3063 12.075 61.3404 12.1091C61.3745 12.1432 61.3936 12.1894 61.3936 12.2376Z" fill="url(#paint1_linear_165_25811)"/>
<rect x="152.188" y="191.068" width="15.1831" height="15.1831" rx="7.59154" fill="white"/>
<rect x="152.688" y="191.568" width="14.1831" height="14.1831" rx="7.09154" stroke="black" stroke-opacity="0.1"/>
<rect x="152.688" y="191.568" width="14.1831" height="14.1831" rx="7.09154" stroke="#005B9B" stroke-opacity="0.6"/>
<path d="M161.449 200.487C161.465 200.505 161.477 200.525 161.485 200.548C161.493 200.57 161.496 200.594 161.495 200.618C161.494 200.642 161.487 200.665 161.477 200.687C161.467 200.708 161.452 200.728 161.434 200.744C161.106 201.037 160.702 201.233 160.268 201.309C159.835 201.385 159.388 201.339 158.979 201.174C158.571 201.01 158.216 200.735 157.955 200.38C157.695 200.025 157.539 199.604 157.505 199.165H156.952C156.904 199.165 156.858 199.145 156.824 199.111C156.79 199.077 156.771 199.031 156.771 198.983C156.771 198.935 156.79 198.888 156.824 198.854C156.858 198.82 156.904 198.801 156.952 198.801H157.497V198.195H156.952C156.904 198.195 156.858 198.176 156.824 198.142C156.79 198.108 156.771 198.062 156.771 198.014C156.771 197.966 156.79 197.919 156.824 197.885C156.858 197.851 156.904 197.832 156.952 197.832H157.505C157.539 197.393 157.695 196.972 157.955 196.617C158.216 196.262 158.571 195.986 158.979 195.822C159.388 195.658 159.835 195.611 160.268 195.687C160.702 195.763 161.106 195.959 161.434 196.253C161.471 196.285 161.493 196.33 161.495 196.378C161.498 196.427 161.482 196.474 161.45 196.51C161.417 196.546 161.372 196.568 161.324 196.571C161.276 196.574 161.228 196.558 161.192 196.525C160.916 196.279 160.577 196.114 160.213 196.048C159.848 195.983 159.473 196.02 159.128 196.155C158.784 196.291 158.484 196.519 158.262 196.815C158.039 197.111 157.904 197.463 157.87 197.832H159.86C159.908 197.832 159.954 197.851 159.988 197.885C160.022 197.919 160.041 197.966 160.041 198.014C160.041 198.062 160.022 198.108 159.988 198.142C159.954 198.176 159.908 198.195 159.86 198.195H157.861V198.801H159.375C159.423 198.801 159.469 198.82 159.504 198.854C159.538 198.888 159.557 198.935 159.557 198.983C159.557 199.031 159.538 199.077 159.504 199.111C159.469 199.145 159.423 199.165 159.375 199.165H157.87C157.903 199.533 158.039 199.885 158.261 200.182C158.483 200.478 158.783 200.707 159.128 200.842C159.472 200.978 159.848 201.015 160.212 200.95C160.577 200.885 160.916 200.72 161.192 200.473C161.228 200.441 161.275 200.424 161.323 200.427C161.371 200.429 161.417 200.451 161.449 200.487Z" fill="url(#paint2_linear_165_25811)"/>
</g>
<g clip-path="url(#clip1_165_25811)">
<path d="M65.5784 63.2252C63.6139 69.3702 57.6832 79.6102 56.0956 84.5352C53.701 91.9652 40.1671 121.12 39.6998 131.795C39.3388 139.795 40.2945 145.34 37.7884 147.46C33.355 151.215 13.3115 168.695 13.3115 168.695L43.9687 205.87C43.9687 205.87 65.6315 190.125 66.9536 190.085C76.8346 189.785 102.649 185.355 112.228 170.62C121.806 155.885 150.419 163.48 150.419 163.48C150.419 163.48 157.205 162.455 157.099 157.95C156.992 153.34 150.637 151.45 150.637 151.45L136.747 140.175L150.419 149.175C150.419 149.175 157.768 150.845 158.458 144.365C158.776 141.365 157.178 139.405 154.306 135.795C152.012 132.965 144.85 126.37 144.85 126.37C144.85 126.37 144.685 124.21 150.419 127.575C154.784 130.13 162.318 129.02 162.1 124.115C162.015 122.29 161.474 120.5 158.914 117.31C156.605 114.46 152.373 108.61 149.936 108.18C143.034 106.975 145.651 104.48 149.989 104.275C152.766 104.145 158.394 101.305 159.09 97.3602C160.077 91.7152 154.566 91.6452 149.777 91.3602C148.832 91.3002 144.441 91.0452 137.22 93.1652C123.994 97.0452 103.303 106.455 89.965 107.9C73.6967 109.66 72.4171 101.995 71.2915 96.6252C70.4419 92.5852 72.2472 84.7502 73.3622 81.7402C75.8789 74.9752 76.4151 60.9452 71.9286 58.3302C69.2473 56.7652 67.1872 58.1402 65.5784 63.2252Z" fill="#FFCBAF"/>
<g style="mix-blend-mode:multiply" opacity="0.3">
<path d="M143.681 155.21C139.752 150.615 136.737 140.21 136.737 140.21L150.409 149.21C150.409 149.21 155.867 150.44 157.81 146.62C148.54 144.65 138.574 122.71 138.574 122.71C142.732 123.821 146.713 125.454 150.409 127.565C154.035 129.685 159.828 129.275 161.559 126.265C157.311 125.1 152.963 121.095 149.729 116.11C145.566 109.685 136.885 105.645 136.885 105.645C136.885 105.645 146.973 104.405 149.957 104.265C152.734 104.135 158.362 101.295 159.053 97.3505C159.202 96.6037 159.202 95.8372 159.053 95.0905C153.462 97.5455 143.729 97.5905 127.583 96.3455C115.254 100.76 100.356 106.75 89.9386 107.875C73.6702 109.635 72.3906 101.97 71.265 96.6005C70.4155 92.5605 72.2207 84.7255 73.3357 81.7155C75.0878 77.0105 75.8736 68.8055 74.6843 63.3555C74.4029 70.6305 70.3093 74.9505 65.6581 89.2605C60.8477 104.09 64.2724 119.15 67.7395 130.89C79.3567 170.265 49.0447 185.89 35.0859 195.12L43.9688 205.87C43.9688 205.87 65.6316 190.125 66.9537 190.085C76.8347 189.785 102.65 185.355 112.228 170.62C121.806 155.885 150.419 163.48 150.419 163.48C150.419 163.48 155.044 162.775 156.594 159.98C152.076 159.635 146.134 158.08 143.681 155.21Z" fill="#FFCDB1"/>
</g>
<path d="M66.3963 60.7303C65.8281 62.0353 63.9804 67.1603 63.5928 68.1903C63.476 68.4953 64.2353 67.7203 65.568 64.1153C66.7573 60.8703 67.5537 59.3703 67.7449 58.8703C67.7449 58.8703 67.2245 58.8153 66.3963 60.7303Z" fill="#F29C6D"/>
<path d="M136.705 31.9653H86.3655C79.0552 31.9653 73.1289 37.5461 73.1289 44.4303V167.055C73.1289 173.94 79.0552 179.52 86.3655 179.52H136.705C144.015 179.52 149.942 173.94 149.942 167.055V44.4303C149.942 37.5461 144.015 31.9653 136.705 31.9653Z" fill="#353535"/>
<path d="M86.9336 34.4854H136.158C139.106 34.4867 141.932 35.5903 144.016 37.5537C146.1 39.5171 147.271 42.1794 147.271 44.9553V166.53C147.27 169.306 146.098 171.968 144.013 173.931C141.928 175.893 139.101 176.995 136.153 176.995H86.9336C83.9848 176.995 81.1569 175.892 79.0719 173.929C76.9868 171.965 75.8154 169.302 75.8154 166.525V44.9504C75.8168 42.1744 76.9888 39.5126 79.0737 37.5502C81.1586 35.5878 83.9858 34.4854 86.9336 34.4854Z" fill="#9DA8E0"/>
<path d="M86.9336 34.4854H136.158C139.106 34.4867 141.932 35.5903 144.016 37.5537C146.1 39.5171 147.271 42.1794 147.271 44.9553V166.53C147.27 169.306 146.098 171.968 144.013 173.931C141.928 175.893 139.101 176.995 136.153 176.995H86.9336C83.9848 176.995 81.1569 175.892 79.0719 173.929C76.9868 171.965 75.8154 169.302 75.8154 166.525V44.9504C75.8168 42.1744 76.9888 39.5126 79.0737 37.5502C81.1586 35.5878 83.9858 34.4854 86.9336 34.4854Z" fill="white"/>
<path d="M82.5428 104.941V102.684H85.1674V101.406H82.5428V99.4344H85.3237V98.1255H81V106.261H85.4928V104.952L82.5428 104.941ZM86.92 101.757C87.3522 101.496 87.8449 101.357 88.3477 101.353C89.1981 101.353 89.3972 101.789 89.3972 102.386C87.539 102.386 86.2164 103.089 86.2164 104.601C86.2086 104.835 86.2484 105.068 86.3332 105.286C86.4181 105.504 86.5461 105.702 86.7095 105.868C86.8729 106.034 87.0681 106.164 87.283 106.25C87.4979 106.336 87.728 106.376 87.9589 106.368C88.2542 106.38 88.5482 106.321 88.8165 106.195C89.0847 106.069 89.3196 105.881 89.5017 105.644H89.5334L89.628 106.251H91.0134C90.9494 105.79 90.9214 105.323 90.9295 104.857V102.707C90.9295 101.418 90.4467 100.247 88.6308 100.247C87.926 100.239 87.23 100.407 86.6046 100.737L86.92 101.757ZM89.4395 104.24C89.4441 104.372 89.4223 104.505 89.3753 104.629C89.3282 104.753 89.257 104.866 89.1659 104.961C89.0748 105.057 88.9655 105.133 88.8448 105.184C88.7241 105.236 88.5944 105.262 88.4634 105.262C88.3603 105.266 88.2576 105.247 88.1624 105.207C88.0671 105.167 87.9816 105.107 87.9117 105.03C87.8418 104.953 87.7893 104.861 87.7577 104.762C87.7261 104.662 87.7162 104.557 87.7286 104.453C87.7286 103.59 88.5996 103.388 89.4294 103.388V104.24L89.4395 104.24ZM91.9695 105.975C92.474 106.244 93.0371 106.38 93.6069 106.37C95.053 106.37 95.895 105.636 95.895 104.508C95.895 103.688 95.4434 103.124 94.4567 102.708C93.7849 102.421 93.5669 102.261 93.5669 101.919C93.5669 101.599 93.8188 101.365 94.2899 101.365C94.6762 101.378 95.054 101.484 95.3922 101.674L95.6831 100.563C95.236 100.339 94.7432 100.226 94.2448 100.233C92.9539 100.233 92.1141 101.042 92.1141 102.095C92.1141 102.733 92.5129 103.362 93.5941 103.809C94.2343 104.086 94.4339 104.267 94.4339 104.629C94.4339 104.991 94.1714 105.214 93.6258 105.214C93.15 105.193 92.686 105.057 92.2715 104.82L91.9695 105.975ZM101.595 103.771C101.627 103.566 101.641 103.36 101.638 103.153C101.638 101.247 100.714 100.236 99.3072 100.236C97.6069 100.236 96.6408 101.695 96.6408 103.388C96.6408 105.219 97.6698 106.369 99.4646 106.369C100.111 106.382 100.753 106.267 101.356 106.031L101.133 104.945C100.678 105.108 100.199 105.19 99.716 105.19C98.8761 105.19 98.1731 104.785 98.1309 103.784H101.605V103.774L101.595 103.771ZM98.1208 102.695C98.1631 102.121 98.4779 101.332 99.2232 101.332C99.9896 101.332 100.231 102.078 100.22 102.695H98.1208ZM108.209 98.1165L107.296 101.173C107.022 102.152 106.792 103.132 106.592 104.05H106.56C106.382 103.113 106.151 102.165 105.888 101.173L105.017 98.1165H103.096L102.561 106.251H103.989L104.146 103.121C104.198 102.109 104.251 100.917 104.272 99.8835H104.304C104.493 100.884 104.745 101.981 105.007 102.897L105.897 106.134H107.073L108.06 102.844C108.333 101.928 108.616 100.853 108.857 99.8835H108.889C108.878 100.703 108.931 102.013 108.973 103.089L109.12 106.251H110.589L110.138 98.1159L108.209 98.1165ZM114.327 103.441C114.243 103.803 114.148 104.231 114.085 104.548H114.054C113.98 104.218 113.875 103.815 113.781 103.441L112.92 100.364H111.232L113.194 105.773C113.229 105.856 113.251 105.945 113.258 106.035C113.123 106.477 112.849 106.862 112.48 107.132C112.233 107.322 111.956 107.466 111.661 107.558L112.05 108.878C112.618 108.757 113.139 108.472 113.552 108.059C114.203 107.398 114.707 106.355 115.347 104.448L116.659 100.348H115.053L114.327 103.441ZM116.846 98.1165V99.4705H118.83V106.254H120.377V99.4671H122.372V98.1131L116.846 98.1165ZM124.522 101.385L124.459 100.352H123.136C123.157 100.874 123.177 101.471 123.177 102.194V106.251H124.72V103.205C124.72 102.193 125.245 101.725 125.948 101.725C126.082 101.723 126.215 101.734 126.347 101.757V100.267C125.963 100.185 125.564 100.258 125.231 100.468C124.899 100.678 124.659 101.01 124.562 101.395H124.521L124.522 101.385ZM128.804 98.7444C128.805 98.577 128.757 98.4132 128.666 98.2735C128.575 98.1338 128.446 98.0245 128.294 97.9595C128.142 97.8945 127.974 97.8767 127.812 97.9083C127.65 97.9399 127.501 98.0196 127.384 98.1372C127.266 98.2547 127.186 98.405 127.153 98.5689C127.119 98.7328 127.135 98.9031 127.197 99.0581C127.259 99.2131 127.365 99.346 127.502 99.4399C127.638 99.5338 127.799 99.5845 127.964 99.5856C128.076 99.5937 128.188 99.5775 128.293 99.5382C128.397 99.4988 128.493 99.4372 128.572 99.3575C128.652 99.2777 128.714 99.1817 128.754 99.0758C128.794 98.9698 128.811 98.8565 128.804 98.7433V98.7444ZM127.208 106.251H128.752V100.351H127.208V106.251ZM131.449 100.363H130.106C130.126 100.896 130.147 101.534 130.147 102.29V108.615H131.701V105.677H131.723C131.879 105.897 132.086 106.076 132.326 106.195C132.566 106.314 132.832 106.37 133.099 106.358C134.285 106.358 135.49 105.399 135.49 103.238C135.49 101.428 134.545 100.225 133.275 100.225C132.932 100.211 132.591 100.291 132.288 100.456C131.985 100.621 131.73 100.864 131.551 101.162H131.53L131.449 100.363ZM131.701 102.78C131.689 102.625 131.706 102.469 131.753 102.32C131.8 102.172 131.876 102.035 131.975 101.916C132.075 101.797 132.196 101.7 132.333 101.629C132.47 101.558 132.619 101.515 132.772 101.502C133.538 101.502 133.937 102.258 133.937 103.312C133.937 104.377 133.528 105.154 132.741 105.154C132.588 105.146 132.439 105.106 132.302 105.037C132.166 104.968 132.045 104.871 131.947 104.752C131.85 104.633 131.777 104.494 131.735 104.345C131.693 104.197 131.681 104.041 131.701 103.887V102.78Z" fill="#005B9B"/>
<path fill-rule="evenodd" clip-rule="evenodd" d="M90.9932 101.129C95.2446 92.4181 106.875 99.084 113.32 93.27C106.897 100.065 94.1845 94.3245 90.9932 101.129Z" fill="#005B9B"/>
<path fill-rule="evenodd" clip-rule="evenodd" d="M110.332 93.4195L111.099 94.25C111.476 94.6652 111.372 94.676 110.941 94.9315L108.494 96.0921C108.2 96.2732 108.011 96.1242 108.221 95.7834L109.774 93.2706C109.921 92.9614 110.089 93.1318 110.332 93.4195Z" fill="#005B9B"/>
<path d="M134.486 108.704C134.585 108.704 134.645 108.664 134.665 108.603C134.698 108.535 134.712 108.459 134.704 108.383C134.704 108.352 134.696 108.321 134.683 108.293C134.669 108.266 134.649 108.241 134.625 108.222C134.574 108.179 134.513 108.151 134.447 108.142C134.414 108.139 134.38 108.148 134.352 108.166C134.324 108.184 134.302 108.211 134.289 108.242C134.259 108.305 134.245 108.374 134.25 108.443C134.248 108.477 134.254 108.512 134.268 108.543C134.282 108.574 134.303 108.602 134.329 108.624C134.348 108.685 134.407 108.704 134.486 108.704ZM136.583 108.724C136.752 108.722 136.92 108.688 137.077 108.624C137.238 108.564 137.391 108.483 137.532 108.383C137.666 108.281 137.792 108.167 137.908 108.044C138.025 107.922 138.119 107.779 138.186 107.623C138.206 107.603 138.206 107.583 138.225 107.543C138.239 107.518 138.246 107.491 138.245 107.463C138.246 107.449 138.244 107.436 138.239 107.423C138.234 107.411 138.227 107.399 138.218 107.39C138.208 107.38 138.197 107.373 138.185 107.368C138.172 107.363 138.159 107.361 138.146 107.362C138.126 107.362 138.106 107.368 138.088 107.378C138.071 107.389 138.056 107.404 138.047 107.423C138.007 107.463 137.988 107.503 137.968 107.523C137.902 107.628 137.829 107.728 137.75 107.824C137.668 107.921 137.574 108.008 137.472 108.084C137.371 108.158 137.266 108.226 137.156 108.285C137.039 108.342 136.91 108.37 136.78 108.365C136.725 108.367 136.67 108.357 136.619 108.336C136.568 108.316 136.522 108.285 136.483 108.245C136.425 108.184 136.384 108.108 136.364 108.025C136.33 107.935 136.316 107.838 136.324 107.742C136.328 107.634 136.341 107.527 136.364 107.421C136.385 107.311 136.419 107.203 136.463 107.1C136.497 107.001 136.544 106.906 136.602 106.818C136.661 106.738 136.701 106.658 136.74 106.618C136.782 106.577 136.828 106.544 136.879 106.517C136.925 106.485 136.981 106.471 137.037 106.477C137.116 106.477 137.156 106.497 137.156 106.557C137.172 106.609 137.179 106.664 137.176 106.718C137.18 106.802 137.159 106.886 137.116 106.959C137.083 107.006 137.062 107.061 137.057 107.119C137.056 107.127 137.057 107.136 137.059 107.143C137.062 107.151 137.066 107.158 137.072 107.164C137.078 107.17 137.085 107.175 137.092 107.177C137.1 107.18 137.108 107.181 137.116 107.179C137.174 107.178 137.23 107.156 137.275 107.119C137.337 107.061 137.379 106.983 137.393 106.898C137.415 106.82 137.428 106.739 137.433 106.658C137.441 106.594 137.432 106.529 137.408 106.47C137.384 106.41 137.345 106.358 137.294 106.319C137.201 106.242 137.081 106.206 136.961 106.219C136.839 106.226 136.718 106.253 136.605 106.299C136.504 106.354 136.411 106.421 136.327 106.5C136.251 106.566 136.19 106.648 136.149 106.74C136.095 106.837 136.048 106.938 136.01 107.042C135.924 107.252 135.877 107.477 135.872 107.704C135.869 107.862 135.896 108.018 135.951 108.166C135.996 108.307 136.07 108.437 136.168 108.547C136.226 108.605 136.293 108.653 136.366 108.688C136.435 108.715 136.509 108.727 136.583 108.724ZM138.029 107.921C138.015 108.134 138.071 108.345 138.186 108.523C138.235 108.583 138.295 108.631 138.363 108.666C138.431 108.7 138.506 108.72 138.582 108.724C138.713 108.717 138.841 108.683 138.958 108.624C139.107 108.538 139.238 108.422 139.343 108.285C139.448 108.147 139.525 107.989 139.57 107.821C139.645 107.602 139.679 107.371 139.669 107.139C139.665 107.038 139.652 106.937 139.629 106.838C139.612 106.752 139.579 106.67 139.53 106.597C139.491 106.524 139.428 106.467 139.352 106.436C139.279 106.398 139.198 106.377 139.115 106.376C138.954 106.385 138.798 106.434 138.66 106.517C138.519 106.614 138.405 106.745 138.326 106.898C138.226 107.051 138.152 107.221 138.109 107.399C138.06 107.57 138.033 107.745 138.026 107.922L138.029 107.921ZM139.136 106.717C139.182 106.718 139.227 106.731 139.265 106.756C139.304 106.781 139.334 106.816 139.354 106.858C139.412 106.969 139.44 107.094 139.433 107.219C139.434 107.388 139.414 107.556 139.374 107.72C139.333 107.852 139.281 107.98 139.216 108.102C139.154 108.191 139.081 108.272 138.999 108.343C138.931 108.396 138.847 108.424 138.761 108.423C138.718 108.422 138.676 108.41 138.638 108.389C138.6 108.368 138.568 108.339 138.544 108.303C138.479 108.187 138.451 108.054 138.465 107.921C138.466 107.786 138.486 107.651 138.524 107.52C138.564 107.38 138.623 107.26 138.662 107.139C138.713 107.029 138.787 106.933 138.879 106.857C138.911 106.818 138.949 106.785 138.993 106.762C139.037 106.738 139.085 106.723 139.134 106.719L139.136 106.717ZM141.846 108.563C141.886 108.563 141.906 108.543 141.945 108.523C141.981 108.508 142.009 108.479 142.024 108.443C142.076 108.37 142.116 108.288 142.143 108.202C142.203 108.102 142.262 107.982 142.341 107.841C142.42 107.701 142.499 107.581 142.579 107.44C142.658 107.3 142.757 107.179 142.836 107.059C142.915 106.938 142.994 106.858 143.054 106.777C143.133 106.696 143.173 106.656 143.232 106.656C143.271 106.656 143.291 106.677 143.291 106.697C143.311 106.717 143.311 106.757 143.331 106.777C143.347 106.807 143.354 106.842 143.351 106.877V106.957C143.347 107.132 143.334 107.306 143.311 107.479C143.288 107.652 143.275 107.826 143.272 108.001C143.268 108.082 143.275 108.163 143.292 108.242C143.3 108.331 143.32 108.419 143.351 108.502C143.382 108.575 143.422 108.642 143.47 108.703C143.499 108.731 143.534 108.752 143.571 108.766C143.608 108.779 143.648 108.786 143.688 108.783C143.805 108.775 143.919 108.741 144.021 108.683C144.145 108.61 144.263 108.529 144.377 108.442C144.496 108.342 144.595 108.241 144.694 108.141C144.78 108.053 144.859 107.958 144.931 107.859C144.951 107.838 144.951 107.819 144.971 107.798C144.978 107.79 144.984 107.781 144.987 107.77C144.991 107.76 144.992 107.749 144.99 107.738C144.99 107.698 144.971 107.678 144.971 107.658C144.951 107.618 144.931 107.618 144.891 107.618C144.871 107.618 144.851 107.623 144.834 107.634C144.816 107.645 144.802 107.66 144.793 107.678C144.753 107.718 144.733 107.758 144.713 107.779C144.674 107.839 144.614 107.899 144.555 107.979L144.318 108.22C144.237 108.294 144.151 108.361 144.06 108.421C143.998 108.471 143.922 108.499 143.843 108.501C143.806 108.501 143.771 108.486 143.744 108.461C143.724 108.421 143.704 108.401 143.685 108.361C143.669 108.323 143.662 108.282 143.665 108.241V108.14C143.665 107.92 143.684 107.679 143.704 107.478C143.737 107.259 143.751 107.037 143.744 106.816C143.744 106.755 143.724 106.695 143.724 106.655C143.707 106.6 143.687 106.547 143.664 106.495C143.635 106.445 143.594 106.403 143.545 106.374C143.501 106.337 143.445 106.316 143.387 106.314C143.293 106.317 143.202 106.352 143.13 106.414C143.05 106.464 142.977 106.525 142.912 106.595C142.836 106.673 142.769 106.76 142.714 106.856C142.66 106.946 142.6 107.033 142.536 107.116C142.457 107.236 142.378 107.337 142.299 107.455C142.22 107.563 142.147 107.676 142.081 107.793C142.061 107.814 142.061 107.833 142.042 107.854C142.032 107.876 142.018 107.896 142.002 107.914C141.982 107.914 141.982 107.894 141.963 107.854C141.947 107.816 141.94 107.775 141.943 107.733C141.943 107.693 141.923 107.633 141.923 107.593V107.493C141.92 107.379 141.927 107.266 141.943 107.154C141.943 107.034 141.963 106.933 141.963 106.816C141.966 106.768 141.959 106.72 141.943 106.675C141.923 106.615 141.923 106.555 141.903 106.515C141.889 106.462 141.862 106.414 141.824 106.374C141.807 106.355 141.786 106.339 141.762 106.329C141.738 106.318 141.712 106.313 141.686 106.314C141.589 106.323 141.499 106.366 141.429 106.434C141.331 106.523 141.239 106.617 141.151 106.716C141.059 106.819 140.979 106.933 140.913 107.055C140.834 107.175 140.775 107.256 140.735 107.315C140.753 107.201 140.779 107.087 140.815 106.977C140.855 106.856 140.875 106.756 140.913 106.656C140.937 106.611 140.957 106.564 140.973 106.515C140.995 106.46 141.022 106.406 141.052 106.355C141.068 106.3 141.088 106.246 141.111 106.194C141.126 106.149 141.133 106.101 141.131 106.053C141.13 106.016 141.116 105.98 141.091 105.953C141.071 105.913 141.032 105.913 140.992 105.913C140.904 105.916 140.816 105.936 140.735 105.973C140.648 106.005 140.577 106.07 140.537 106.154C140.505 106.232 140.478 106.312 140.458 106.395C140.411 106.531 140.378 106.673 140.359 106.816C140.315 106.981 140.282 107.148 140.26 107.318C140.22 107.498 140.181 107.656 140.161 107.819C140.127 107.965 140.101 108.112 140.082 108.26C140.063 108.401 140.042 108.481 140.042 108.543C140.042 108.583 140.063 108.603 140.082 108.643C140.101 108.683 140.141 108.683 140.181 108.683C140.207 108.684 140.233 108.679 140.257 108.668C140.281 108.658 140.302 108.642 140.319 108.623C140.352 108.587 140.379 108.547 140.398 108.502C140.431 108.425 140.471 108.351 140.517 108.282C140.577 108.181 140.636 108.061 140.715 107.943C140.794 107.803 140.873 107.683 140.953 107.542C141.052 107.402 141.131 107.282 141.21 107.161C141.289 107.04 141.368 106.96 141.427 106.879C141.506 106.799 141.546 106.759 141.585 106.759C141.593 106.757 141.602 106.758 141.609 106.761C141.617 106.763 141.624 106.768 141.63 106.774C141.636 106.779 141.64 106.787 141.643 106.794C141.645 106.802 141.646 106.811 141.645 106.819C141.645 106.859 141.664 106.879 141.664 106.899V107.34C141.662 107.448 141.668 107.555 141.684 107.661C141.684 107.781 141.704 107.882 141.704 108C141.724 108.12 141.724 108.22 141.744 108.3C141.759 108.382 141.779 108.462 141.803 108.541C141.763 108.524 141.804 108.565 141.844 108.565L141.846 108.563Z" fill="#252220"/>
<path fill-rule="evenodd" clip-rule="evenodd" d="M106.024 88.021L121.109 89.2881C121.843 89.3304 121.728 89.4799 121.361 89.8207L114.002 97.1252C113.593 97.5833 113.498 97.4553 113.005 96.9125L110.129 93.6115C109.752 93.207 109.688 93.1218 110.339 92.8876L117.498 90.5558L109.447 92.0058C108.849 92.1333 108.922 92.2185 108.492 91.6109L105.815 88.5C105.479 88.1169 105.511 87.9358 106.024 88.021Z" fill="#00A4D5"/>
<path d="M118.53 36.7903H104.625C104.271 36.7896 103.921 36.8546 103.595 36.9814C103.268 37.1083 102.971 37.2945 102.721 37.5295C102.471 37.7645 102.273 38.0437 102.138 38.3509C102.002 38.6582 101.933 38.9876 101.933 39.3203C101.931 39.6544 101.999 39.9857 102.133 40.295C102.267 40.6043 102.465 40.8855 102.715 41.1225C102.966 41.3595 103.263 41.5476 103.591 41.6759C103.918 41.8042 104.27 41.8703 104.625 41.8703H118.53C118.883 41.8709 119.233 41.806 119.56 41.6791C119.887 41.5523 120.183 41.366 120.433 41.131C120.683 40.896 120.882 40.6169 121.017 40.3096C121.152 40.0024 121.222 39.673 121.222 39.3403C121.224 39.0061 121.156 38.6749 121.022 38.3656C120.887 38.0563 120.69 37.7751 120.439 37.5381C120.189 37.3011 119.892 37.113 119.564 36.9847C119.236 36.8563 118.885 36.7903 118.53 36.7903Z" fill="#353535"/>
<path d="M118.436 41.0852C117.913 41.0852 117.412 40.8897 117.043 40.5419C116.673 40.194 116.466 39.7222 116.466 39.2302C116.465 38.9862 116.516 38.7444 116.614 38.5188C116.713 38.2931 116.858 38.088 117.041 37.9153C117.224 37.7425 117.441 37.6054 117.681 37.5119C117.92 37.4183 118.177 37.3702 118.436 37.3702C118.696 37.3682 118.955 37.4148 119.196 37.5074C119.438 37.6 119.658 37.7367 119.843 37.9096C120.028 38.0825 120.175 38.2883 120.275 38.5149C120.375 38.7416 120.427 38.9847 120.427 39.2302C120.427 39.4755 120.375 39.7183 120.275 39.9447C120.174 40.1711 120.027 40.3765 119.842 40.549C119.657 40.7215 119.437 40.8577 119.196 40.9498C118.955 41.0418 118.696 41.0878 118.436 41.0852Z" fill="#282828"/>
<path d="M66.5488 192.886L38.9632 147.891C38.2096 146.662 36.5405 146.241 35.2352 146.951L6.61151 162.513C5.3062 163.223 4.85898 164.795 5.6126 166.024L33.1982 211.018C33.9518 212.247 35.6209 212.668 36.9262 211.959L65.5499 196.396C66.8552 195.687 67.3024 194.115 66.5488 192.886Z" fill="#9DA8E0"/>
<path d="M66.5488 192.886L38.9632 147.891C38.2096 146.662 36.5405 146.241 35.2352 146.951L6.61151 162.513C5.3062 163.223 4.85898 164.795 5.6126 166.024L33.1982 211.018C33.9518 212.247 35.6209 212.668 36.9262 211.959L65.5499 196.396C66.8552 195.687 67.3024 194.115 66.5488 192.886Z" fill="#005B9B"/>
<g style="mix-blend-mode:multiply" opacity="0.3">
<path d="M57.3914 177.95C43.3424 188.62 32.1818 195.185 25.6299 198.67L33.1959 211.015C33.559 211.601 34.1527 212.029 34.8483 212.206C35.544 212.383 36.2856 212.295 36.9126 211.96L65.5362 196.395C66.1599 196.054 66.6149 195.495 66.8019 194.839C66.989 194.183 66.8928 193.484 66.5344 192.895L57.3914 177.95Z" fill="#9DA8E0"/>
</g>
</g>
<defs>
<linearGradient id="paint0_linear_165_25811" x1="169.543" y1="49.3298" x2="148.812" y2="43.3358" gradientUnits="userSpaceOnUse">
<stop stop-color="#005B9B"/>
<stop offset="1" stop-color="#00A4D5"/>
</linearGradient>
<linearGradient id="paint1_linear_165_25811" x1="59.3093" y1="43.7285" x2="38.9808" y2="37.1292" gradientUnits="userSpaceOnUse">
<stop stop-color="#005B9B"/>
<stop offset="1" stop-color="#00A4D5"/>
</linearGradient>
<linearGradient id="paint2_linear_165_25811" x1="159.174" y1="227.189" x2="137.256" y2="218.923" gradientUnits="userSpaceOnUse">
<stop stop-color="#005B9B"/>
<stop offset="1" stop-color="#00A4D5"/>
</linearGradient>
<clipPath id="clip0_165_25811">
<rect width="7.75306" height="7.75306" fill="white" transform="translate(165.63 11.8743)"/>
</clipPath>
<clipPath id="clip1_165_25811">
<rect width="158.224" height="181.278" fill="white" transform="translate(4.24805 31.9653)"/>
</clipPath>
</defs>
</svg>
