<svg width="159" height="40" viewBox="0 0 159 40" fill="none" xmlns="http://www.w3.org/2000/svg">
<path d="M16.3806 0C11.9334 0 7.35012 1.15573 5.22923 2.17286C3.26672 3.05636 2.6802 4.50164 2.6802 5.74893C2.6802 8.00594 4.78871 9.6888 8.00099 8.65681C10.0377 7.9317 12.9555 7.0581 15.9302 7.0581C21.6123 7.0581 24.0178 9.17404 24.0178 14.1211V16.5167C20.662 15.7223 18.1872 15.2917 14.7695 15.2917C4.92235 15.2917 0.304399 20.6595 0 26.7277V28.0591C0.2945 34.4169 4.63033 39.2947 13.0694 39.9109C13.6237 39.9654 14.1929 39.9975 14.7745 40V28.4477L11.1415 30.5117C10.2877 30.9794 9.40667 31.0957 8.49842 30.8631C7.59017 30.628 6.90218 30.0711 6.43445 29.1901C6.21419 28.7768 6.08303 28.3512 6.04096 27.9107C5.99889 27.4701 6.04096 27.0371 6.1647 26.6089C6.28844 26.1808 6.48889 25.7823 6.7636 25.4111C7.0383 25.0399 7.38229 24.7306 7.79558 24.4831L16.3014 19.6944C16.9053 19.3652 17.5264 19.1994 18.16 19.1994C18.7391 19.1994 19.239 19.3182 19.6671 19.5508C20.0928 19.7859 20.4516 20.073 20.7412 20.417C21.0307 20.761 21.2436 21.1471 21.3797 21.5727C21.5158 21.9984 21.5851 22.3919 21.5851 22.7507V39.265C21.7187 39.2353 21.8524 39.2031 21.9835 39.1709C25.8937 38.2627 28.7224 36.8001 30.0588 35.9067C31.1576 35.1593 31.4422 34.3748 31.4422 33.0607V14.1187C31.4471 4.28881 25.6932 0 16.3806 0Z" fill="url(#paint0_linear_767_8502)"/>
<path d="M79.7465 15.9351C78.6798 15.0417 77.2222 14.5938 75.376 14.5938C74.49 14.5938 73.6387 14.6854 72.822 14.8685C72.0053 15.0516 71.3842 15.2496 70.961 15.46C70.5749 15.6332 70.3126 15.8485 70.1666 16.1084C70.023 16.3682 69.9513 16.6231 69.9513 16.8731C69.9513 17.3161 70.1443 17.6724 70.5279 17.9397C70.9115 18.2094 71.4213 18.2391 72.0573 18.0263C72.4607 17.8729 72.9383 17.7293 73.4853 17.5932C74.0347 17.4596 74.6063 17.3903 75.2028 17.3903C76.3387 17.3903 77.1554 17.6106 77.6553 18.0535C78.1552 18.4965 78.4051 19.2068 78.4051 20.1893V21.1421C77.732 20.9886 77.1207 20.8674 76.5738 20.7808C76.0244 20.6941 75.4156 20.6521 74.7424 20.6521C73.7228 20.6521 72.8468 20.7808 72.1167 21.0406C71.3842 21.3005 70.7803 21.6519 70.2977 22.0949C69.8176 22.5379 69.4612 23.0477 69.2311 23.6243C69.0009 24.2009 68.8846 24.8072 68.8846 25.4433C68.8846 26.156 69.0084 26.8143 69.2608 27.4206C69.5107 28.0269 69.882 28.5565 70.372 29.007C70.862 29.4598 71.4782 29.8113 72.2182 30.0612C72.9581 30.3112 73.8194 30.4374 74.7994 30.4374C75.5492 30.4374 76.2471 30.3805 76.8906 30.2641C77.534 30.1478 78.1106 30.0043 78.6229 29.8311C79.1327 29.6578 79.5708 29.4796 79.9346 29.2965C80.3008 29.1134 80.5879 28.955 80.8007 28.8213C81.0111 28.6679 81.1571 28.5095 81.2338 28.3462C81.3105 28.1828 81.3501 27.9675 81.3501 27.6978V20.1918C81.3477 18.249 80.8131 16.8285 79.7465 15.9351ZM78.4051 26.8564C78.2517 26.9727 77.9052 27.1509 77.3657 27.3909C76.8262 27.631 76.0566 27.7522 75.0567 27.7522C74.0173 27.7522 73.2279 27.5468 72.6908 27.1311C72.1513 26.7178 71.8841 26.1164 71.8841 25.3269C71.8841 24.634 72.1687 24.0994 72.7354 23.7258C73.3021 23.3496 74.0297 23.164 74.9132 23.164C75.5665 23.164 76.1531 23.206 76.6728 23.2927C77.1925 23.3793 77.7691 23.5005 78.4051 23.654V26.8564ZM100.305 12.8045C100.785 12.8045 101.188 12.6313 101.517 12.2848C101.844 11.9383 102.007 11.525 102.007 11.0449C102.007 10.5648 101.844 10.1614 101.517 9.83229C101.19 9.50562 100.785 9.34229 100.305 9.34229C99.8046 9.34229 99.3913 9.50562 99.0647 9.83229C98.738 10.159 98.5747 10.5648 98.5747 11.0449C98.5747 11.525 98.738 11.9383 99.0647 12.2848C99.3913 12.6313 99.8046 12.8045 100.305 12.8045ZM100.305 14.7942C99.8615 14.7942 99.4977 14.9427 99.2082 15.2422C98.9186 15.5416 98.7751 15.9104 98.7751 16.3534V28.7026C98.7751 29.1455 98.9285 29.5143 99.2379 29.8137C99.5448 30.1132 99.9011 30.2617 100.305 30.2617C100.748 30.2617 101.111 30.1132 101.401 29.8137C101.69 29.5168 101.834 29.1455 101.834 28.7026V16.3534C101.834 15.9104 101.685 15.5416 101.386 15.2422C101.089 14.9452 100.728 14.7942 100.305 14.7942ZM50.8335 15.9351C49.7669 15.0417 48.3092 14.5938 46.463 14.5938C45.5771 14.5938 44.7257 14.6854 43.9091 14.8685C43.0924 15.0516 42.4712 15.2496 42.048 15.46C41.662 15.6332 41.3996 15.8485 41.2536 16.1084C41.1101 16.3682 41.0383 16.6231 41.0383 16.8731C41.0383 17.3161 41.2313 17.6724 41.6149 17.9397C41.9985 18.2094 42.5083 18.2391 43.1444 18.0263C43.5477 17.8729 44.0254 17.7293 44.5723 17.5932C45.1217 17.4596 45.6934 17.3903 46.2898 17.3903C47.4257 17.3903 48.2424 17.6106 48.7423 18.0535C49.2422 18.4965 49.4922 19.2068 49.4922 20.1893V21.1421C48.819 20.9886 48.2078 20.8674 47.6608 20.7808C47.1114 20.6941 46.5026 20.6521 45.8295 20.6521C44.8099 20.6521 43.9338 20.7808 43.2038 21.0406C42.4712 21.3005 41.8674 21.6519 41.3848 22.0949C40.9047 22.5379 40.5483 23.0477 40.3181 23.6243C40.088 24.2009 39.9717 24.8072 39.9717 25.4433C39.9717 26.156 40.0954 26.8143 40.3478 27.4206C40.5978 28.0269 40.969 28.5565 41.459 29.007C41.949 29.4598 42.5653 29.8113 43.3052 30.0612C44.0452 30.3112 44.9064 30.4374 45.8864 30.4374C46.6363 30.4374 47.3342 30.3805 47.9776 30.2641C48.6211 30.1478 49.1977 30.0043 49.71 29.8311C50.2198 29.6578 50.6578 29.4796 51.0216 29.2965C51.3879 29.1134 51.6749 28.955 51.8878 28.8213C52.0981 28.6679 52.2442 28.5095 52.3209 28.3462C52.3976 28.1828 52.4372 27.9675 52.4372 27.6978V20.1918C52.4372 18.249 51.9026 16.8285 50.8335 15.9351ZM49.4922 26.8564C49.3388 26.9727 48.9923 27.1509 48.4528 27.3909C47.9133 27.631 47.1436 27.7522 46.1438 27.7522C45.1044 27.7522 44.3149 27.5468 43.7779 27.1311C43.2384 26.7178 42.9711 26.1164 42.9711 25.3269C42.9711 24.634 43.2557 24.0994 43.8224 23.7258C44.3892 23.3496 45.1168 23.164 46.0003 23.164C46.6536 23.164 47.2401 23.206 47.7598 23.2927C48.2795 23.3793 48.8562 23.5005 49.4922 23.654V26.8564ZM90.0911 14.5938C89.3412 14.5938 88.6433 14.6458 87.9999 14.7522C87.354 14.8586 86.7823 14.9922 86.2824 15.1556C85.7825 15.3189 85.3494 15.4921 84.9831 15.6753C84.6168 15.8584 84.3298 16.0267 84.1169 16.1801C83.9041 16.3336 83.7507 16.4919 83.6542 16.6553C83.5576 16.8186 83.5106 17.0537 83.5106 17.3631V28.7026C83.5106 29.1455 83.6641 29.5143 83.9734 29.8137C84.2803 30.1132 84.6366 30.2617 85.04 30.2617C85.483 30.2617 85.8468 30.1132 86.1364 29.8137C86.4259 29.5168 86.5695 29.1455 86.5695 28.7026V18.3431C86.8961 18.1327 87.3713 17.9446 87.9974 17.7813C88.6235 17.618 89.2917 17.5363 90.002 17.5363C90.445 17.5363 90.8682 17.5982 91.2716 17.7244C91.6749 17.8506 92.0313 18.0461 92.3382 18.3159C92.6451 18.5856 92.8901 18.9271 93.0732 19.3404C93.2563 19.7537 93.3479 20.2487 93.3479 20.8253V28.7026C93.3479 29.1455 93.5013 29.5143 93.8107 29.8137C94.1176 30.1132 94.4739 30.2617 94.8773 30.2617C95.3203 30.2617 95.6841 30.1132 95.9736 29.8137C96.2632 29.5168 96.4067 29.1455 96.4067 28.7026V20.6818C96.4067 18.7193 95.8771 17.2146 94.8204 16.1653C93.7637 15.1184 92.1872 14.5938 90.0911 14.5938ZM65.6501 9.54274C65.2269 9.54274 64.8656 9.69123 64.5686 9.99068C64.2691 10.2901 64.1207 10.6589 64.1207 11.1019V15.4303C63.6405 15.2199 63.0614 15.0269 62.3883 14.8536C61.7152 14.6804 61.0321 14.5938 60.3392 14.5938C58.4732 14.5938 57.0155 15.1085 55.9687 16.1381C54.9194 17.1676 54.318 18.5856 54.1646 20.3947C54.1448 20.6644 54.1299 20.9763 54.1225 21.3326C54.1025 22.0782 54.1025 22.8242 54.1225 23.5698C54.1324 23.9361 54.1473 24.243 54.1646 24.4929C54.2413 25.3789 54.4442 26.1857 54.7709 26.9158C55.0976 27.6483 55.5455 28.2719 56.1122 28.7916C56.679 29.3113 57.3472 29.7147 58.1168 30.0043C58.8865 30.2938 59.7626 30.4374 60.7426 30.4374C61.4355 30.4374 62.0988 30.3706 62.7348 30.2344C63.3708 30.1008 63.9425 29.9375 64.4523 29.7444C64.9621 29.5514 65.4051 29.3559 65.7788 29.153C66.1549 28.95 66.4371 28.7817 66.6301 28.6481C66.8602 28.4947 67.0087 28.3313 67.078 28.1581C67.1448 27.9849 67.1795 27.7646 67.1795 27.4949V11.1019C67.1795 10.6589 67.036 10.2901 66.7464 9.99068C66.4593 9.6937 66.0931 9.54274 65.6501 9.54274ZM64.1231 26.453C63.9697 26.5693 63.7717 26.6831 63.5317 26.7994C63.2916 26.9158 63.0169 27.0246 62.71 27.1311C62.4032 27.2375 62.0839 27.3241 61.7572 27.3909C61.4306 27.4577 61.1113 27.4924 60.8044 27.4924C58.592 27.4924 57.3991 26.3664 57.2259 24.1168C57.2061 23.8866 57.1913 23.6218 57.1838 23.3224C57.1739 23.0254 57.169 22.716 57.169 22.3993C57.169 22.0825 57.1739 21.7731 57.1838 21.4762C57.1937 21.1792 57.2086 20.9317 57.2259 20.7412C57.2828 19.6844 57.5823 18.8851 58.1193 18.3456C58.6588 17.8061 59.4755 17.5388 60.5718 17.5388C61.3217 17.5388 62.0245 17.6402 62.6779 17.8407C63.3312 18.0436 63.8138 18.2391 64.1207 18.4322V26.453H64.1231Z" fill="url(#paint1_linear_767_8502)"/>
<path d="M116.364 14.5938C117.289 14.5938 118.148 14.7324 118.937 15.012C119.727 15.2917 120.417 15.6852 121.004 16.195C121.593 16.7048 122.063 17.316 122.422 18.0263C122.778 18.739 122.986 19.526 123.043 20.3922C123.063 20.6818 123.075 21.0035 123.085 21.3598C123.105 22.0857 123.105 22.8119 123.085 23.5377C123.075 23.9039 123.06 24.2306 123.043 24.5177C122.986 25.3641 122.778 26.1486 122.422 26.8687C122.073 27.5789 121.592 28.2157 121.004 28.7446C120.415 29.2742 119.727 29.6875 118.937 29.9845C118.148 30.2815 117.289 30.4324 116.364 30.4324C115.458 30.4324 114.609 30.2839 113.82 29.9845C113.03 29.6875 112.34 29.2742 111.753 28.7446C111.164 28.215 110.689 27.5914 110.323 26.8687C109.956 26.1486 109.744 25.3641 109.687 24.5177C109.667 24.2281 109.652 23.9015 109.645 23.5377C109.625 22.8119 109.625 22.0857 109.645 21.3598C109.654 21.0035 109.669 20.6818 109.687 20.3922C109.744 19.526 109.956 18.739 110.323 18.0263C110.689 17.3136 111.167 16.7048 111.753 16.195C112.342 15.6852 113.03 15.2917 113.82 15.012C114.609 14.7324 115.455 14.5938 116.364 14.5938ZM116.349 17.5363C115.272 17.5363 114.421 17.8382 113.795 18.4446C113.169 19.0509 112.817 19.8354 112.74 20.7956C112.721 21.0258 112.706 21.2856 112.698 21.5752C112.679 22.1755 112.679 22.7764 112.698 23.3768C112.708 23.6763 112.723 23.9312 112.74 24.1415C112.837 25.1611 113.203 25.9729 113.837 26.5792C114.47 27.1855 115.309 27.4874 116.346 27.4874C117.386 27.4874 118.227 27.1855 118.871 26.5792C119.514 25.9729 119.885 25.1611 119.982 24.1415C120.002 23.9312 120.011 23.6763 120.011 23.3768V22.4686C120.011 22.1617 120.006 21.8622 119.997 21.5752C119.987 21.2856 119.982 21.0258 119.982 20.7956C119.925 19.8329 119.578 19.0509 118.942 18.4446C118.311 17.8382 117.445 17.5363 116.349 17.5363ZM137.845 28.7025C137.845 29.1455 137.701 29.5143 137.412 29.8137C137.122 30.1132 136.758 30.2617 136.315 30.2617C135.912 30.2617 135.556 30.1132 135.249 29.8137C134.942 29.5168 134.786 29.1455 134.786 28.7025V20.8253C134.786 20.2487 134.694 19.7537 134.511 19.3404C134.328 18.9271 134.083 18.5856 133.776 18.3159C133.469 18.0461 133.113 17.8506 132.71 17.7244C132.298 17.5986 131.87 17.5352 131.44 17.5363C130.727 17.5363 130.059 17.618 129.435 17.7813C128.809 17.9446 128.334 18.1327 128.007 18.3431V28.7025C128.007 29.1455 127.864 29.5143 127.574 29.8137C127.285 30.1132 126.921 30.2617 126.478 30.2617C126.075 30.2617 125.718 30.1132 125.411 29.8137C125.105 29.5168 124.949 29.1455 124.949 28.7025V17.3631C124.949 17.0562 124.996 16.8186 125.092 16.6553C125.189 16.4919 125.342 16.3336 125.555 16.1801C125.765 16.0267 126.055 15.8584 126.421 15.6753C126.787 15.4921 127.218 15.3189 127.72 15.1556C128.22 14.9922 128.792 14.8586 129.438 14.7522C130.081 14.6458 130.779 14.5938 131.529 14.5938C133.625 14.5938 135.204 15.1184 136.261 16.1653C137.318 17.2146 137.847 18.7193 137.847 20.6818V28.7025H137.845ZM152.59 21.8647C152.59 22.4042 152.441 22.8447 152.142 23.1912C151.842 23.5377 151.377 23.7109 150.743 23.7109H142.577V24.0574C142.577 25.2106 142.928 26.0966 143.631 26.7128C144.334 27.329 145.252 27.6359 146.385 27.6359C146.905 27.6359 147.447 27.574 148.016 27.4478C148.583 27.3241 149.147 27.1558 149.704 26.943C150.011 26.8267 150.295 26.7846 150.555 26.8143C150.815 26.844 151.035 26.9207 151.218 27.0444C151.396 27.1647 151.54 27.3283 151.637 27.5196C151.733 27.7126 151.78 27.9131 151.78 28.1259C151.78 28.3561 151.733 28.5838 151.637 28.804C151.54 29.0243 151.33 29.2322 151.001 29.4252C150.751 29.5786 150.446 29.7197 150.092 29.8434C149.736 29.9696 149.353 30.0736 148.939 30.1602C148.526 30.2468 148.093 30.3136 147.64 30.3631C147.187 30.4102 146.749 30.4349 146.328 30.4349C145.329 30.4349 144.428 30.2815 143.631 29.9721C142.831 29.6652 142.146 29.2371 141.567 28.6877C140.988 28.1383 140.532 27.485 140.196 26.7252C139.859 25.9654 139.661 25.1339 139.604 24.2281C139.585 23.9584 139.57 23.6614 139.562 23.3347C139.552 23.0081 139.547 22.6863 139.547 22.3671C139.547 22.0478 139.552 21.741 139.562 21.444C139.572 21.147 139.587 20.8822 139.604 20.6496C139.681 19.7265 139.894 18.89 140.24 18.1402C140.587 17.3903 141.047 16.7518 141.626 16.2222C142.203 15.6926 142.881 15.2892 143.66 15.0095C144.44 14.7299 145.281 14.5913 146.185 14.5913C147.147 14.5913 148.021 14.7447 148.811 15.0541C149.6 15.361 150.273 15.799 150.83 16.3682C151.387 16.9349 151.82 17.618 152.129 18.4173C152.436 19.2167 152.592 20.0952 152.592 21.0579V21.8647H152.59ZM149.271 21.2881C149.464 21.2881 149.578 21.1718 149.617 20.9416C149.694 19.8453 149.419 18.9643 148.796 18.301C148.17 17.6378 147.301 17.3061 146.185 17.3061C144.952 17.3061 144.034 17.6675 143.43 18.3876C142.824 19.1078 142.539 20.0754 142.579 21.2881H149.271ZM136.748 10.7801C136.748 11.0796 136.701 11.337 136.61 11.5547C136.516 11.7725 136.387 11.9507 136.221 12.0868C136.052 12.2275 135.854 12.3312 135.642 12.3912C135.422 12.4556 135.184 12.4877 134.932 12.4877H132.987C132.757 12.4877 132.581 12.4209 132.462 12.2848C132.343 12.1487 132.284 11.9854 132.284 11.7948V7.23376C132.284 7.0432 132.343 6.87739 132.462 6.74375C132.581 6.60764 132.754 6.54082 132.987 6.54082H134.87C135.145 6.54082 135.39 6.58289 135.605 6.66703C135.82 6.75118 135.999 6.86502 136.142 7.00608C136.286 7.14714 136.395 7.31048 136.466 7.49609C136.538 7.6817 136.575 7.87968 136.575 8.08756C136.575 8.27317 136.555 8.43651 136.516 8.57757C136.476 8.71863 136.422 8.84237 136.35 8.94879C136.278 9.0552 136.197 9.1443 136.105 9.21607C136.011 9.28536 135.912 9.34475 135.806 9.3893V9.39673C136.093 9.48087 136.323 9.6442 136.496 9.88426C136.662 10.1268 136.748 10.4238 136.748 10.7801ZM134.756 9.02798C135.073 9.02798 135.306 8.95621 135.452 8.81268C135.598 8.66914 135.672 8.46868 135.672 8.2113C135.672 7.94155 135.595 7.74109 135.439 7.60498C135.283 7.47134 135.056 7.40205 134.756 7.40205H133.177V9.02551H134.756V9.02798ZM133.177 11.624H134.816C135.162 11.624 135.414 11.5473 135.58 11.3914C135.744 11.2355 135.825 11.0128 135.825 10.7183C135.825 10.4361 135.739 10.2184 135.565 10.0624C135.392 9.90653 135.162 9.82981 134.875 9.82981H133.177V11.624ZM141.485 6.54082C141.614 6.54082 141.725 6.58289 141.814 6.66456C141.903 6.74623 141.95 6.85264 141.95 6.98133C141.95 7.11002 141.903 7.21891 141.812 7.308C141.718 7.39462 141.611 7.43917 141.485 7.43917H138.862V9.07253H141.416C141.535 9.07253 141.634 9.11212 141.715 9.19132C141.797 9.27051 141.839 9.37198 141.839 9.49572C141.839 9.60956 141.797 9.70607 141.713 9.79269C141.629 9.87683 141.53 9.91891 141.416 9.91891H138.862V11.5943H141.51C141.629 11.5943 141.733 11.6389 141.827 11.7255C141.921 11.8121 141.965 11.9185 141.965 12.0423C141.965 12.1734 141.921 12.2799 141.834 12.364C141.747 12.4481 141.639 12.4902 141.507 12.4902H138.647C138.416 12.4902 138.241 12.4234 138.122 12.2873C138.003 12.1512 137.944 11.9878 137.944 11.7973V7.22634C137.944 7.0333 138.003 6.87244 138.122 6.7388C138.241 6.60764 138.414 6.54082 138.647 6.54082H141.485ZM144.608 7.43669H143.076C142.945 7.43669 142.836 7.39215 142.747 7.30553C142.658 7.21891 142.611 7.1125 142.611 6.98876C142.611 6.86007 142.656 6.75118 142.747 6.66703C142.836 6.58289 142.948 6.54082 143.076 6.54082H147.044C147.172 6.54082 147.284 6.58289 147.373 6.66703C147.462 6.75118 147.509 6.86007 147.509 6.98876C147.509 7.1125 147.462 7.21891 147.37 7.30553C147.276 7.39215 147.167 7.43669 147.044 7.43669H145.522V12.0571C145.522 12.1858 145.477 12.2972 145.39 12.3863C145.304 12.4754 145.195 12.5224 145.064 12.5224C144.94 12.5224 144.834 12.4778 144.742 12.3863C144.65 12.2947 144.606 12.1858 144.606 12.0571V7.43669H144.608ZM152.562 12.0299C152.562 12.1437 152.523 12.2502 152.444 12.3516C152.364 12.4531 152.255 12.5026 152.114 12.5026C152.018 12.5026 151.934 12.4778 151.857 12.4259C151.78 12.3739 151.726 12.3021 151.691 12.2056L151.132 10.6242H148.593L148.033 12.2155C147.999 12.3046 147.944 12.3764 147.865 12.4259C147.786 12.4754 147.702 12.5026 147.61 12.5026C147.469 12.5026 147.36 12.4556 147.284 12.359C147.207 12.2625 147.17 12.1586 147.17 12.0472C147.17 11.9854 147.177 11.9284 147.194 11.8789L148.887 7.17437C148.971 6.92689 149.103 6.74375 149.276 6.62496C149.451 6.50617 149.647 6.44678 149.867 6.44678C150.083 6.44678 150.276 6.50617 150.451 6.62496C150.627 6.74375 150.758 6.92689 150.85 7.17437L152.533 11.8789C152.552 11.9284 152.562 11.9804 152.562 12.0299ZM148.88 9.79764H150.842L150.038 7.50351C150.011 7.41937 149.954 7.3773 149.87 7.3773C149.781 7.3773 149.719 7.41937 149.692 7.50351L148.88 9.79764Z" fill="#59595B"/>
<path d="M153.651 15.2349H152.921C152.892 15.2356 152.863 15.2305 152.836 15.2198C152.808 15.2092 152.784 15.1933 152.763 15.173C152.742 15.1536 152.726 15.1302 152.715 15.1042C152.704 15.0782 152.698 15.0503 152.698 15.022C152.698 14.9602 152.721 14.9082 152.763 14.8686C152.805 14.829 152.859 14.8092 152.921 14.8092H154.812C154.874 14.8092 154.926 14.829 154.97 14.8686C155.012 14.9082 155.034 14.9602 155.034 15.022C155.034 15.0814 155.012 15.1309 154.968 15.173C154.923 15.2151 154.871 15.2349 154.812 15.2349H154.087V17.4374C154.087 17.4993 154.067 17.5513 154.025 17.5958C154.004 17.6166 153.98 17.633 153.953 17.6441C153.927 17.6552 153.898 17.6606 153.869 17.6602C153.809 17.6602 153.757 17.6379 153.715 17.5958C153.695 17.5751 153.678 17.5504 153.667 17.5232C153.656 17.496 153.651 17.4668 153.651 17.4374V15.2349ZM158.388 17.4374C158.388 17.4993 158.37 17.5537 158.336 17.5983C158.301 17.6428 158.247 17.6676 158.17 17.6676C158.116 17.6676 158.069 17.6503 158.024 17.6181C158.003 17.6031 157.986 17.5839 157.974 17.5616C157.962 17.5394 157.954 17.5148 157.952 17.4894L157.665 15.272C157.66 15.2472 157.648 15.2349 157.628 15.2349C157.608 15.2349 157.598 15.2448 157.591 15.267L157.131 17.2964C157.103 17.4176 157.056 17.5067 156.985 17.5636C156.915 17.6206 156.834 17.6503 156.74 17.6503C156.646 17.6503 156.564 17.6206 156.495 17.5636C156.425 17.5067 156.378 17.4176 156.351 17.2964L155.888 15.272C155.883 15.2472 155.871 15.2349 155.851 15.2349C155.831 15.2349 155.821 15.2472 155.814 15.272L155.532 17.4894C155.527 17.5438 155.502 17.5859 155.46 17.6181C155.418 17.6503 155.369 17.6676 155.314 17.6676C155.24 17.6676 155.183 17.6453 155.148 17.5983C155.114 17.5537 155.096 17.4993 155.096 17.4374C155.096 17.4152 155.099 17.4003 155.101 17.3879L155.421 15.173C155.443 15.0369 155.49 14.9354 155.567 14.8735C155.641 14.8117 155.73 14.782 155.834 14.782C155.938 14.782 156.029 14.8117 156.106 14.8711C156.183 14.9305 156.235 15.0245 156.264 15.1532L156.707 17.1454C156.71 17.1528 156.715 17.1627 156.72 17.1702C156.725 17.1776 156.735 17.1825 156.747 17.1825C156.759 17.1825 156.769 17.1776 156.774 17.1702C156.779 17.1627 156.782 17.1528 156.784 17.1454L157.22 15.1532C157.249 15.0245 157.301 14.9305 157.378 14.8711C157.452 14.8117 157.541 14.782 157.645 14.782C157.749 14.782 157.841 14.8117 157.915 14.8735C157.989 14.9354 158.039 15.0344 158.061 15.173L158.383 17.3879C158.385 17.3978 158.388 17.4152 158.388 17.4374Z" fill="#59595B"/>
<defs>
<linearGradient id="paint0_linear_767_8502" x1="-5.04436" y1="23.6434" x2="40.5823" y2="15.5981" gradientUnits="userSpaceOnUse">
<stop stop-color="#00AE6B"/>
<stop offset="0.301" stop-color="#066DB4"/>
<stop offset="0.632" stop-color="#8C2A8A"/>
<stop offset="1" stop-color="#EF4E25"/>
</linearGradient>
<linearGradient id="paint1_linear_767_8502" x1="23.7591" y1="30.3453" x2="117.635" y2="13.7922" gradientUnits="userSpaceOnUse">
<stop stop-color="#00AE6B"/>
<stop offset="0.301" stop-color="#066DB4"/>
<stop offset="0.632" stop-color="#8C2A8A"/>
<stop offset="1" stop-color="#EF4E25"/>
</linearGradient>
</defs>
</svg>
