<svg xmlns="http://www.w3.org/2000/svg" width="115.071" height="49.629" viewBox="0 0 115.071 49.629"><path d="M342.111,720.149a1.993,1.993,0,0,0,.816-.141,1.052,1.052,0,0,0,.611-.8.616.616,0,0,0-.3-.78,1.952,1.952,0,0,0-.768-.113h-1.427l-.386,1.829Zm-.31,2.725a1.489,1.489,0,0,0,1.138-.426,1.36,1.36,0,0,0,.338-.651.691.691,0,0,0-.39-.876,1.955,1.955,0,0,0-.78-.125h-1.588l-.442,2.078Zm-1.4-5.222h2.537a1.347,1.347,0,0,1,1.343.619,1.254,1.254,0,0,1,.076.844,1.66,1.66,0,0,1-.511.917,2.088,2.088,0,0,1-.547.346,1.535,1.535,0,0,1,.595.39,1.21,1.21,0,0,1,.173,1.065,2.059,2.059,0,0,1-.579,1.033,2.469,2.469,0,0,1-1.845.691h-2.5Zm5.419-.02h.724l-.47,2.2a2.927,2.927,0,0,1,.563-.458,1.812,1.812,0,0,1,.921-.229q.937,0,1.13.655a2.138,2.138,0,0,1-.028.993l-.587,2.762h-.744l.575-2.713a1.459,1.459,0,0,0,.028-.7q-.125-.354-.667-.354a1.493,1.493,0,0,0-.88.31,1.87,1.87,0,0,0-.615,1.17l-.482,2.283h-.724Zm4.747,5.455a1.912,1.912,0,0,0,.78-.177,1.315,1.315,0,0,0,.808-.961l.121-.583a1.5,1.5,0,0,1-.37.141,3.289,3.289,0,0,1-.426.08l-.45.056a1.976,1.976,0,0,0-.627.165.84.84,0,0,0-.462.6.494.494,0,0,0,.121.494A.71.71,0,0,0,350.568,723.088ZM352,720.949a.52.52,0,0,0,.382-.209.731.731,0,0,0,.1-.277.476.476,0,0,0-.149-.535,1.222,1.222,0,0,0-.72-.169,1.166,1.166,0,0,0-.868.306,1.248,1.248,0,0,0-.277.5H349.8a1.6,1.6,0,0,1,.752-1.105,2.462,2.462,0,0,1,1.218-.313,2.011,2.011,0,0,1,1.17.289.8.8,0,0,1,.281.9l-.527,2.48a.31.31,0,0,0,0,.181q.032.068.181.068.048,0,.109,0l.137-.02-.117.535a2.2,2.2,0,0,1-.269.06,1.877,1.877,0,0,1-.241.012.47.47,0,0,1-.486-.265.868.868,0,0,1-.04-.4,2.528,2.528,0,0,1-.744.5,2.244,2.244,0,0,1-.957.213,1.117,1.117,0,0,1-.9-.362,1.026,1.026,0,0,1-.185-.912,1.505,1.505,0,0,1,.571-.929,2.219,2.219,0,0,1,1.069-.406Zm2.657-1.7h.687l-.157.744a2.185,2.185,0,0,1,.523-.527,1.323,1.323,0,0,1,.828-.314l.068,0,.161.016-.161.764a1.093,1.093,0,0,0-.117-.016q-.052,0-.117,0a1.275,1.275,0,0,0-.917.354,1.567,1.567,0,0,0-.466.808l-.523,2.476h-.724Zm3.232,3.835a1.912,1.912,0,0,0,.78-.177,1.316,1.316,0,0,0,.808-.961l.121-.583a1.5,1.5,0,0,1-.37.141,3.288,3.288,0,0,1-.426.08l-.45.056a1.975,1.975,0,0,0-.627.165.84.84,0,0,0-.462.6.494.494,0,0,0,.121.494A.71.71,0,0,0,357.893,723.088Zm1.435-2.139a.52.52,0,0,0,.382-.209.731.731,0,0,0,.1-.277.476.476,0,0,0-.149-.535,1.222,1.222,0,0,0-.719-.169,1.166,1.166,0,0,0-.868.306,1.248,1.248,0,0,0-.277.5h-.675a1.6,1.6,0,0,1,.752-1.105,2.462,2.462,0,0,1,1.218-.313,2.011,2.011,0,0,1,1.17.289.8.8,0,0,1,.281.9l-.527,2.48a.311.311,0,0,0,0,.181q.032.068.181.068.048,0,.109,0l.137-.02-.117.535a2.2,2.2,0,0,1-.269.06,1.876,1.876,0,0,1-.241.012.471.471,0,0,1-.486-.265.868.868,0,0,1-.04-.4,2.527,2.527,0,0,1-.744.5,2.244,2.244,0,0,1-.957.213,1.117,1.117,0,0,1-.9-.362,1.026,1.026,0,0,1-.185-.912,1.505,1.505,0,0,1,.571-.929,2.219,2.219,0,0,1,1.069-.406Zm3.039-2.9h.732l-.257,1.2h.687l-.125.591h-.687l-.6,2.81q-.048.225.088.3a.593.593,0,0,0,.273.044h.113l.145-.012-.121.571a1.822,1.822,0,0,1-.273.052,2.5,2.5,0,0,1-.293.016q-.506,0-.635-.257a1.053,1.053,0,0,1-.036-.675l.607-2.85H361.4l.125-.591h.583Zm4.506-.4h.7l-.732,3.429,2.247-1.829h.925l-1.99,1.612,1.17,2.693h-.925l-.884-2.171-.724.555-.342,1.616h-.7Zm4.3,5.435a1.912,1.912,0,0,0,.78-.177,1.316,1.316,0,0,0,.808-.961l.121-.583a1.5,1.5,0,0,1-.37.141,3.288,3.288,0,0,1-.426.08l-.45.056a1.975,1.975,0,0,0-.627.165.84.84,0,0,0-.462.6.494.494,0,0,0,.121.494A.71.71,0,0,0,371.174,723.088Zm1.435-2.139a.52.52,0,0,0,.382-.209.731.731,0,0,0,.1-.277.476.476,0,0,0-.149-.535,1.222,1.222,0,0,0-.72-.169,1.166,1.166,0,0,0-.868.306,1.248,1.248,0,0,0-.277.5h-.675a1.6,1.6,0,0,1,.752-1.105,2.462,2.462,0,0,1,1.218-.313,2.011,2.011,0,0,1,1.17.289.8.8,0,0,1,.281.9l-.527,2.48a.31.31,0,0,0,0,.181q.032.068.181.068.048,0,.109,0l.137-.02-.117.535a2.2,2.2,0,0,1-.269.06,1.876,1.876,0,0,1-.241.012.471.471,0,0,1-.486-.265.869.869,0,0,1-.04-.4,2.527,2.527,0,0,1-.744.5,2.244,2.244,0,0,1-.957.213,1.117,1.117,0,0,1-.9-.362,1.026,1.026,0,0,1-.185-.912,1.505,1.505,0,0,1,.571-.929,2.219,2.219,0,0,1,1.069-.406Zm9.519-3.3-.149.7h-1.99l-1.106,5.2h-.811l1.105-5.2h-1.99l.149-.7Zm.012,1.6h.687l-.157.744a2.178,2.178,0,0,1,.522-.527,1.322,1.322,0,0,1,.828-.314l.068,0,.161.016-.161.764a1.094,1.094,0,0,0-.116-.016c-.035,0-.074,0-.117,0a1.273,1.273,0,0,0-.916.354,1.564,1.564,0,0,0-.466.808l-.522,2.476h-.724Zm3.232,3.835a1.913,1.913,0,0,0,.78-.177,1.317,1.317,0,0,0,.808-.961l.121-.583a1.506,1.506,0,0,1-.37.141,3.289,3.289,0,0,1-.427.08l-.45.056a1.975,1.975,0,0,0-.627.165.84.84,0,0,0-.462.6.494.494,0,0,0,.121.494A.71.71,0,0,0,385.373,723.088Zm1.435-2.139a.519.519,0,0,0,.381-.209.728.728,0,0,0,.1-.277.477.477,0,0,0-.149-.535,1.222,1.222,0,0,0-.72-.169,1.166,1.166,0,0,0-.868.306,1.239,1.239,0,0,0-.277.5H384.6a1.6,1.6,0,0,1,.752-1.105,2.462,2.462,0,0,1,1.218-.313,2.01,2.01,0,0,1,1.17.289.8.8,0,0,1,.281.9l-.527,2.48a.313.313,0,0,0,0,.181q.033.068.181.068.048,0,.109,0l.136-.02-.116.535a2.195,2.195,0,0,1-.269.06,1.876,1.876,0,0,1-.241.012.471.471,0,0,1-.487-.265.874.874,0,0,1-.04-.4,2.531,2.531,0,0,1-.744.5,2.243,2.243,0,0,1-.957.213,1.118,1.118,0,0,1-.9-.362,1.026,1.026,0,0,1-.185-.912,1.506,1.506,0,0,1,.571-.929,2.219,2.219,0,0,1,1.07-.406Zm2.99-1.7.406,3.505,1.946-3.505h.792l-2.536,4.305h-.772l-.676-4.305Zm6.955.675a1.63,1.63,0,0,1,.128.76,4.765,4.765,0,0,1-.136.949h-3.156a1.642,1.642,0,0,0,.085,1.053.836.836,0,0,0,.816.394,1.416,1.416,0,0,0,.981-.374,1.66,1.66,0,0,0,.382-.5h.711a1.971,1.971,0,0,1-.3.531,2.485,2.485,0,0,1-.454.474,2.168,2.168,0,0,1-.909.434,2.681,2.681,0,0,1-.607.064,1.451,1.451,0,0,1-1.238-.583,1.984,1.984,0,0,1-.209-1.64,3.11,3.11,0,0,1,.921-1.684,2.3,2.3,0,0,1,1.608-.647,1.693,1.693,0,0,1,.844.217A1.175,1.175,0,0,1,396.753,719.928Zm-.631,1.134a1.686,1.686,0,0,0-.044-.752.822.822,0,0,0-.88-.523,1.357,1.357,0,0,0-.913.362,1.737,1.737,0,0,0-.555.913Zm2.384-3.409h.724l-1.254,5.905h-.723Zm6.038,3.485-.342-2.609-1.508,2.609Zm-.571-3.485h.9l.889,5.905h-.876l-.225-1.769h-2.336l-1.013,1.769h-.82Zm5.881,3.726a2.248,2.248,0,0,0,.036-.884.794.794,0,0,0-.876-.712,1.332,1.332,0,0,0-1.19.752,3.512,3.512,0,0,0-.366,1.021,2.054,2.054,0,0,0-.028.848.794.794,0,0,0,.885.667,1.3,1.3,0,0,0,.933-.422A2.5,2.5,0,0,0,409.853,721.379Zm-2.6-2.106h.7l-.121.571a2.342,2.342,0,0,1,.571-.454,1.792,1.792,0,0,1,.912-.241,1.281,1.281,0,0,1,1.122.563,2.016,2.016,0,0,1,.169,1.6,3.107,3.107,0,0,1-1.162,2.01,2,2,0,0,1-1.165.382,1.262,1.262,0,0,1-.772-.213,1.336,1.336,0,0,1-.342-.414l-.466,2.2h-.724Zm7.188,2.106a2.246,2.246,0,0,0,.036-.884.793.793,0,0,0-.876-.712,1.331,1.331,0,0,0-1.19.752,3.5,3.5,0,0,0-.366,1.021,2.054,2.054,0,0,0-.028.848.793.793,0,0,0,.884.667,1.3,1.3,0,0,0,.933-.422A2.494,2.494,0,0,0,414.436,721.379Zm-2.605-2.106h.7l-.121.571a2.35,2.35,0,0,1,.57-.454,1.8,1.8,0,0,1,.913-.241,1.281,1.281,0,0,1,1.122.563,2.019,2.019,0,0,1,.168,1.6,3.106,3.106,0,0,1-1.161,2.01,2,2,0,0,1-1.166.382,1.262,1.262,0,0,1-.772-.213,1.343,1.343,0,0,1-.342-.414l-.466,2.2h-.724Z" transform="translate(-319.305 -675.646)" fill="#515151"/><path d="M2.774,312.46v-4H7.493v-2.265H2.774V302.7h5V300.38H0V314.8H8.078v-2.321Zm7.87-5.643a5.107,5.107,0,0,1,2.567-.717c1.529,0,1.887.774,1.887,1.831-3.341,0-5.719,1.246-5.719,3.926a3.033,3.033,0,0,0,3.133,3.133,3.349,3.349,0,0,0,2.774-1.283h.057l.17,1.076h2.491a15.771,15.771,0,0,1-.151-2.472V308.5c0-2.284-.868-4.36-4.133-4.36a7.705,7.705,0,0,0-3.643.868Zm4.53,4.4a1.75,1.75,0,0,1-1.755,1.812,1.28,1.28,0,0,1-1.321-1.434c0-1.529,1.566-1.887,3.058-1.887v1.51Zm4.549,3.076a6.109,6.109,0,0,0,2.944.7c2.6,0,4.114-1.3,4.114-3.3,0-1.453-.812-2.454-2.586-3.19-1.208-.51-1.6-.793-1.6-1.4,0-.566.453-.981,1.3-.981a4.4,4.4,0,0,1,1.982.547L26.4,304.7a5.69,5.69,0,0,0-2.586-.585c-2.321,0-3.831,1.434-3.831,3.3,0,1.132.717,2.246,2.661,3.039,1.151.491,1.51.812,1.51,1.453s-.472,1.038-1.453,1.038a5.441,5.441,0,0,1-2.435-.7Zm17.307-3.907a6.358,6.358,0,0,0,.076-1.095c0-3.378-1.661-5.171-4.19-5.171-3.057,0-4.794,2.586-4.794,5.587,0,3.246,1.85,5.285,5.077,5.285a8.967,8.967,0,0,0,3.4-.6l-.4-1.925a7.624,7.624,0,0,1-2.548.434c-1.51,0-2.774-.717-2.85-2.491h6.247v-.019Zm-6.247-1.906c.076-1.019.642-2.416,1.982-2.416,1.378,0,1.812,1.321,1.793,2.416Zm18.138-8.116-1.642,5.417c-.491,1.736-.906,3.473-1.265,5.1h-.057c-.321-1.661-.736-3.341-1.208-5.1l-1.567-5.417H39.729l-.963,14.419h2.567l.283-5.549c.094-1.793.189-3.907.226-5.738H41.9c.34,1.774.793,3.718,1.265,5.341l1.6,5.738h2.114l1.774-5.832c.491-1.623,1-3.529,1.434-5.247h.057c-.019,1.453.075,3.775.151,5.681l.264,5.605h2.642l-.812-14.419Zm11,9.437c-.151.642-.321,1.4-.434,1.963h-.057c-.132-.585-.321-1.3-.49-1.963l-1.548-5.454H54.356l3.529,9.588A1.493,1.493,0,0,1,58,314.4a3.784,3.784,0,0,1-1.4,1.944,4.752,4.752,0,0,1-1.472.755l.7,2.34a5.441,5.441,0,0,0,2.7-1.453c1.17-1.17,2.076-3.02,3.227-6.4l2.36-7.266H61.226Zm4.53-9.437v2.4h3.567v12.023H70.8V302.758h3.586v-2.4Zm13.8,5.794-.113-1.831H75.759c.038.925.075,1.982.075,3.265v7.191h2.774v-5.4c0-1.793.944-2.623,2.208-2.623a3.941,3.941,0,0,1,.717.057v-2.642a2.736,2.736,0,0,0-3.209,2H78.25Zm7.7-4.681a1.5,1.5,0,1,0-1.51,1.491A1.412,1.412,0,0,0,85.951,301.475Zm-2.869,13.306h2.775V304.325H83.082Zm7.625-10.437H88.291c.037.944.075,2.076.075,3.416v11.211H91.16v-5.209H91.2a2.883,2.883,0,0,0,2.473,1.208c2.133,0,4.3-1.7,4.3-5.53,0-3.209-1.7-5.341-3.983-5.341a3.477,3.477,0,0,0-3.1,1.661h-.038Zm.453,4.284a2.1,2.1,0,0,1,1.925-2.265c1.377,0,2.095,1.34,2.095,3.208,0,1.887-.736,3.265-2.151,3.265a1.987,1.987,0,0,1-1.869-2.246Z" transform="translate(0 -282.433)" fill="#005b9b"/><path d="M307.086,173.585c7.644-15.439,28.556-3.624,40.144-13.929C335.68,171.7,312.824,161.525,307.086,173.585Z" transform="translate(-289.119 -150.315)" fill="#005b9b" fill-rule="evenodd"/><path d="M837.7,155.243l1.378,1.472c.679.736.491.755-.283,1.208l-4.4,2.057c-.529.321-.868.057-.491-.547l2.793-4.454C836.96,154.431,837.262,154.733,837.7,155.243Z" transform="translate(-784.962 -145.637)" fill="#005b9b" fill-rule="evenodd"/><path d="M1636.817,547.7c.178,0,.285-.071.321-.178a.706.706,0,0,0,.071-.391.369.369,0,0,0-.142-.285.639.639,0,0,0-.32-.142.281.281,0,0,0-.284.178.7.7,0,0,0-.071.356.387.387,0,0,0,.142.32C1636.568,547.666,1636.674,547.7,1636.817,547.7Zm3.769.036a2.476,2.476,0,0,0,.889-.178,3.6,3.6,0,0,0,.818-.427,5.5,5.5,0,0,0,.676-.6,2.49,2.49,0,0,0,.5-.747c.036-.036.036-.071.071-.142a.272.272,0,0,0,.035-.142.168.168,0,0,0-.178-.178.2.2,0,0,0-.178.107c-.071.071-.106.142-.142.178a5.1,5.1,0,0,1-.391.533,3.068,3.068,0,0,1-.5.462,4.987,4.987,0,0,1-.569.356,1.444,1.444,0,0,1-.676.142.724.724,0,0,1-.534-.213.845.845,0,0,1-.213-.391,1.125,1.125,0,0,1-.072-.5,3.1,3.1,0,0,1,.072-.569,2.626,2.626,0,0,1,.178-.569,2.163,2.163,0,0,1,.249-.5c.106-.142.178-.285.249-.356a1.069,1.069,0,0,1,.249-.178.427.427,0,0,1,.284-.071c.142,0,.214.036.214.142a.782.782,0,0,1,.036.285.755.755,0,0,1-.107.427.57.57,0,0,0-.106.284.094.094,0,0,0,.106.107.474.474,0,0,0,.285-.107.7.7,0,0,0,.213-.391,2.117,2.117,0,0,0,.071-.427.652.652,0,0,0-.249-.6.823.823,0,0,0-.6-.178,2.075,2.075,0,0,0-.64.142,2.52,2.52,0,0,0-.5.356,1.231,1.231,0,0,0-.32.427,3.649,3.649,0,0,0-.249.534,3.272,3.272,0,0,0-.249,1.174,2.21,2.21,0,0,0,.142.818,1.868,1.868,0,0,0,.391.676,1.268,1.268,0,0,0,.356.249A.949.949,0,0,0,1640.586,547.737Zm2.6-1.423a1.738,1.738,0,0,0,.284,1.067.988.988,0,0,0,.711.356,1.743,1.743,0,0,0,.676-.178,2.33,2.33,0,0,0,1.1-1.423,3.211,3.211,0,0,0,.178-1.209,2.74,2.74,0,0,0-.071-.533,1.172,1.172,0,0,0-.178-.427.626.626,0,0,0-.32-.285.946.946,0,0,0-.427-.107,1.813,1.813,0,0,0-.818.249,1.85,1.85,0,0,0-.6.676,2.835,2.835,0,0,0-.391.889A3.851,3.851,0,0,0,1643.182,546.314Zm1.992-2.134a.436.436,0,0,1,.391.249,1.215,1.215,0,0,1,.142.64,3.575,3.575,0,0,1-.106.889,3.848,3.848,0,0,1-.284.676,2.324,2.324,0,0,1-.391.427.683.683,0,0,1-.427.142.491.491,0,0,1-.391-.213,1.126,1.126,0,0,1-.142-.676,2.674,2.674,0,0,1,.106-.711c.072-.249.178-.462.249-.676a1.433,1.433,0,0,1,.391-.5A.674.674,0,0,1,1645.174,544.181Zm4.872,3.272c.071,0,.107-.036.178-.071a.275.275,0,0,0,.142-.142,1.549,1.549,0,0,0,.214-.427c.107-.178.214-.391.356-.64s.284-.462.427-.711.321-.462.463-.676.284-.356.391-.5c.142-.142.214-.213.32-.213.071,0,.107.036.107.071.036.036.036.107.071.142a.32.32,0,0,1,.036.178v.142a8.185,8.185,0,0,1-.071.925,8.048,8.048,0,0,0-.071.925,1.728,1.728,0,0,0,.036.427,1.787,1.787,0,0,0,.107.462,1.55,1.55,0,0,0,.214.356.534.534,0,0,0,.391.142,1.445,1.445,0,0,0,.6-.178,6.668,6.668,0,0,0,.64-.427c.214-.178.391-.356.569-.534a4.6,4.6,0,0,0,.427-.5c.036-.036.036-.071.071-.107a.132.132,0,0,0,.035-.107c0-.071-.035-.107-.035-.142-.036-.071-.071-.071-.143-.071a.2.2,0,0,0-.177.107c-.071.071-.107.142-.143.178-.071.107-.178.213-.284.356l-.427.427a3.982,3.982,0,0,1-.463.356.662.662,0,0,1-.391.142.271.271,0,0,1-.178-.071c-.036-.071-.071-.107-.106-.178a.449.449,0,0,1-.036-.213v-.178c0-.391.035-.818.071-1.174a6.478,6.478,0,0,0,.071-1.174c0-.107-.036-.213-.036-.285a2.587,2.587,0,0,0-.107-.284.6.6,0,0,0-.214-.213.473.473,0,0,0-.284-.107.751.751,0,0,0-.463.178,1.893,1.893,0,0,0-.391.32,2.283,2.283,0,0,0-.356.462,5.192,5.192,0,0,1-.32.462c-.142.213-.284.391-.427.6a5.8,5.8,0,0,0-.391.6c-.036.036-.036.071-.071.107a.451.451,0,0,1-.071.107c-.036,0-.036-.036-.071-.107a.45.45,0,0,1-.036-.213c0-.071-.035-.178-.035-.249v-.178a3.49,3.49,0,0,1,.035-.6c0-.213.036-.391.036-.6a.6.6,0,0,0-.036-.249c-.035-.107-.035-.213-.071-.284a.576.576,0,0,0-.142-.249.324.324,0,0,0-.249-.107.765.765,0,0,0-.462.213,6.591,6.591,0,0,0-.5.5,3.165,3.165,0,0,0-.427.6c-.142.213-.249.356-.32.462a3.726,3.726,0,0,1,.143-.6c.071-.214.107-.391.177-.569a1.7,1.7,0,0,0,.107-.249,2.108,2.108,0,0,1,.142-.285,2.6,2.6,0,0,1,.106-.285.688.688,0,0,0,.036-.249.271.271,0,0,0-.072-.178c-.035-.071-.106-.071-.177-.071a1.229,1.229,0,0,0-.463.107.637.637,0,0,0-.356.32,3.033,3.033,0,0,0-.142.427,3.883,3.883,0,0,0-.178.747,6.611,6.611,0,0,0-.178.889c-.071.32-.142.6-.177.889a7.35,7.35,0,0,0-.143.782c-.035.249-.071.391-.071.5,0,.071.036.107.071.178s.107.071.178.071a.323.323,0,0,0,.249-.107.753.753,0,0,0,.142-.213,2.258,2.258,0,0,1,.214-.391c.107-.178.213-.391.356-.6.142-.249.284-.462.427-.711.178-.249.32-.462.462-.676s.285-.356.391-.5c.142-.142.214-.213.284-.213a.094.094,0,0,1,.107.107c0,.071.035.107.035.142v.782a3.236,3.236,0,0,0,.036.569c0,.213.036.391.036.6.036.213.036.391.071.533a3.708,3.708,0,0,0,.107.427C1649.9,547.381,1649.975,547.453,1650.046,547.453Z" transform="translate(-1540.649 -511.003)" fill="#252220"/><path d="M756.6.037l27.122,2.246c1.321.075,1.113.34.453.944l-13.23,12.947c-.736.812-.906.585-1.793-.377l-5.171-5.851c-.679-.717-.793-.868.377-1.283l12.872-4.133L762.755,7.1c-1.076.226-.944.377-1.718-.7L756.224.886C755.621.207,755.677-.114,756.6.037Z" transform="translate(-711.607 0)" fill="#00a4d5" fill-rule="evenodd"/><rect width="15.856" height="0.995" transform="translate(0.513 44.841)" fill="#ff630b"/><rect width="15.856" height="0.995" transform="translate(99.215 44.841)" fill="#139e3a"/></svg>