<svg width="17" height="16" viewBox="0 0 17 16" fill="none" xmlns="http://www.w3.org/2000/svg">
<g id="Eye">
<path id="Vector" d="M15.8424 7.84812C15.8212 7.79938 15.3012 6.64625 14.1399 5.485C13.0624 4.40875 11.2112 3.125 8.49991 3.125C5.78866 3.125 3.93741 4.40875 2.85991 5.485C1.69866 6.64625 1.17866 7.7975 1.15741 7.84812C1.13604 7.89613 1.125 7.94808 1.125 8.00062C1.125 8.05317 1.13604 8.10512 1.15741 8.15312C1.17866 8.20125 1.69866 9.35437 2.85991 10.5156C3.93741 11.5919 5.78866 12.875 8.49991 12.875C11.2112 12.875 13.0624 11.5919 14.1399 10.5156C15.3012 9.35437 15.8212 8.20312 15.8424 8.15312C15.8638 8.10512 15.8748 8.05317 15.8748 8.00062C15.8748 7.94808 15.8638 7.89613 15.8424 7.84812ZM8.49991 12.125C6.53866 12.125 4.82616 11.4113 3.40928 10.0044C2.81533 9.41409 2.31272 8.73854 1.91803 8C2.31261 7.26158 2.81523 6.58622 3.40928 5.99625C4.82616 4.58875 6.53866 3.875 8.49991 3.875C10.4612 3.875 12.1737 4.58875 13.5905 5.99625C14.1846 6.58622 14.6872 7.26158 15.0818 8C14.6837 8.76312 12.6874 12.125 8.49991 12.125ZM8.49991 5.125C7.93129 5.125 7.37544 5.29362 6.90264 5.60952C6.42985 5.92543 6.06136 6.37445 5.84376 6.89979C5.62615 7.42512 5.56922 8.00319 5.68015 8.56088C5.79108 9.11858 6.0649 9.63086 6.46698 10.0329C6.86905 10.435 7.38133 10.7088 7.93902 10.8198C8.49672 10.9307 9.07479 10.8738 9.60012 10.6562C10.1255 10.4386 10.5745 10.0701 10.8904 9.59726C11.2063 9.12447 11.3749 8.56862 11.3749 8C11.3739 7.23781 11.0707 6.50712 10.5317 5.96816C9.99279 5.42921 9.2621 5.12599 8.49991 5.125ZM8.49991 10.125C8.07962 10.125 7.66878 10.0004 7.31932 9.76687C6.96987 9.53338 6.6975 9.20149 6.53666 8.8132C6.37583 8.42491 6.33375 7.99764 6.41574 7.58543C6.49773 7.17322 6.70012 6.79458 6.99731 6.4974C7.29449 6.20021 7.67313 5.99782 8.08534 5.91583C8.49755 5.83384 8.92482 5.87592 9.31311 6.03676C9.7014 6.19759 10.0333 6.46996 10.2668 6.81941C10.5003 7.16887 10.6249 7.57971 10.6249 8C10.6249 8.56359 10.401 9.10409 10.0025 9.5026C9.604 9.90112 9.06349 10.125 8.49991 10.125Z" fill="#0DA486"/>
</g>
</svg>
