<svg xmlns="http://www.w3.org/2000/svg" width="15" height="10" viewBox="0 0 15 10" fill="none">
  <path d="M14.8424 4.84812C14.8212 4.79938 14.3012 3.64625 13.1399 2.485C12.0624 1.40875 10.2112 0.125 7.49991 0.125C4.78866 0.125 2.93741 1.40875 1.85991 2.485C0.698659 3.64625 0.178659 4.7975 0.157409 4.84812C0.136042 4.89613 0.125 4.94808 0.125 5.00062C0.125 5.05317 0.136042 5.10512 0.157409 5.15312C0.178659 5.20125 0.698659 6.35437 1.85991 7.51562C2.93741 8.59188 4.78866 9.875 7.49991 9.875C10.2112 9.875 12.0624 8.59188 13.1399 7.51562C14.3012 6.35437 14.8212 5.20312 14.8424 5.15312C14.8638 5.10512 14.8748 5.05317 14.8748 5.00062C14.8748 4.94808 14.8638 4.89613 14.8424 4.84812ZM7.49991 9.125C5.53866 9.125 3.82616 8.41125 2.40928 7.00438C1.81533 6.41409 1.31272 5.73854 0.918034 5C1.31261 4.26158 1.81523 3.58622 2.40928 2.99625C3.82616 1.58875 5.53866 0.875 7.49991 0.875C9.46116 0.875 11.1737 1.58875 12.5905 2.99625C13.1846 3.58622 13.6872 4.26158 14.0818 5C13.6837 5.76312 11.6874 9.125 7.49991 9.125ZM7.49991 2.125C6.93129 2.125 6.37544 2.29362 5.90264 2.60952C5.42985 2.92543 5.06136 3.37445 4.84376 3.89979C4.62615 4.42512 4.56922 5.00319 4.68015 5.56088C4.79108 6.11858 5.0649 6.63086 5.46698 7.03293C5.86905 7.43501 6.38133 7.70883 6.93902 7.81976C7.49672 7.93069 8.07479 7.87376 8.60012 7.65615C9.12546 7.43855 9.57447 7.07006 9.89038 6.59726C10.2063 6.12447 10.3749 5.56862 10.3749 5C10.3739 4.23781 10.0707 3.50712 9.53174 2.96816C8.99279 2.42921 8.2621 2.12599 7.49991 2.125ZM7.49991 7.125C7.07962 7.125 6.66878 7.00037 6.31932 6.76687C5.96987 6.53338 5.6975 6.20149 5.53666 5.8132C5.37583 5.42491 5.33375 4.99764 5.41574 4.58543C5.49773 4.17322 5.70012 3.79458 5.99731 3.4974C6.29449 3.20021 6.67313 2.99782 7.08534 2.91583C7.49755 2.83384 7.92482 2.87592 8.31311 3.03676C8.7014 3.19759 9.03328 3.46996 9.26678 3.81941C9.50028 4.16887 9.62491 4.57971 9.62491 5C9.62491 5.56359 9.40102 6.10409 9.00251 6.5026C8.604 6.90112 8.06349 7.125 7.49991 7.125Z" fill="#EC5B24"/>
</svg>