<svg width="70" height="32" viewBox="0 0 70 32" fill="none" xmlns="http://www.w3.org/2000/svg">
<path fill-rule="evenodd" clip-rule="evenodd" d="M0 2.88223C0 2.08708 0.281677 1.40792 0.845404 0.844942C1.40915 0.281771 2.08886 0 2.88498 0C3.6812 0 4.36047 0.281771 4.924 0.844942C5.48775 1.40792 5.76984 2.08708 5.76984 2.88223C5.76984 3.67738 5.48775 4.35637 4.924 4.91954C4.36047 5.4825 3.68054 5.76386 2.88498 5.76386C2.08941 5.76386 1.40915 5.4825 0.845404 4.91954C0.281677 4.35637 0 3.677 0 2.88223ZM0.397793 7.95038H5.37179V24.0497H0.397793V7.95038ZM25.7588 2.88223C25.7588 2.08708 26.0404 1.40792 26.6041 0.844942C27.1679 0.281771 27.8478 0 28.6436 0C29.4393 0 30.119 0.281771 30.683 0.844942C31.2465 1.40792 31.5284 2.08708 31.5284 2.88223C31.5284 3.67738 31.2463 4.35637 30.683 4.91954C30.119 5.4825 29.4392 5.76386 28.6436 5.76386C27.8479 5.76386 27.1679 5.4825 26.6041 4.91954C26.0404 4.35637 25.7588 3.677 25.7588 2.88223ZM26.1566 7.95038H31.1308V24.0497H26.1566V7.95038ZM37.4447 15.9007C37.4447 16.4309 37.5436 16.9333 37.7428 17.408C37.942 17.8825 38.2236 18.3023 38.5886 18.6668C38.9535 19.0309 39.3732 19.3239 39.8486 19.5447C40.324 19.7655 40.849 19.8757 41.4239 19.8757C41.9988 19.8757 42.4959 19.7655 42.9823 19.5447C43.4686 19.3239 43.8943 19.0311 44.2587 18.6668C44.6235 18.3025 44.9058 17.8827 45.1045 17.408C45.3033 16.9332 45.4026 16.4309 45.4026 15.9007C45.4026 15.3705 45.3035 14.8682 45.1045 14.3935C44.9058 13.9187 44.6235 13.499 44.2587 13.1347C43.8943 12.7705 43.4686 12.4779 42.9823 12.2567C42.4959 12.036 41.9765 11.9256 41.4239 11.9256C40.8713 11.9256 40.324 12.036 39.8486 12.2567C39.3732 12.4779 38.9535 12.7703 38.5886 13.1347C38.2236 13.4992 37.942 13.9187 37.7428 14.3935C37.5436 14.8682 37.4447 15.3705 37.4447 15.9007ZM49.9788 22.6913C49.9788 25.7392 49.2105 28.0522 47.6742 29.6311C46.138 31.2105 43.7998 32 40.661 32C39.2242 32 37.8094 31.8399 36.4166 31.5197C35.0238 31.1994 33.7418 30.5755 32.5698 29.648L35.3225 25.5404C36.0961 26.1808 36.9084 26.6887 37.7596 27.0641C38.6106 27.4398 39.5445 27.6275 40.5615 27.6275C42.087 27.6275 43.2088 27.2574 43.9274 26.5175C44.646 25.7776 45.0048 24.8335 45.0048 23.6856V22.1286H44.9383C44.3637 22.9015 43.6508 23.4484 42.7999 23.7683C41.9485 24.0888 41.1472 24.2486 40.3956 24.2486C39.2016 24.2486 38.1185 24.044 37.146 23.6356C36.1734 23.2272 35.3389 22.6529 34.6423 21.9132C33.9461 21.1736 33.4101 20.2955 33.0343 19.2797C32.6585 18.2639 32.4706 17.1489 32.4706 15.9339C32.4706 14.8742 32.6417 13.8361 32.9844 12.8201C33.3273 11.8042 33.8134 10.9099 34.4434 10.1368C35.0736 9.36399 35.8419 8.74 36.748 8.26538C37.6544 7.79065 38.6822 7.55339 39.8318 7.55339C40.5393 7.55339 41.1862 7.63069 41.772 7.78497C42.3579 7.93957 42.8826 8.1384 43.3469 8.38111C43.8115 8.62405 44.2091 8.89471 44.5408 9.19268C44.8727 9.49086 45.1376 9.78358 45.3367 10.0706H45.4026V7.9506H49.9791L49.9788 22.6913ZM56.3589 16C56.3589 17.2149 56.707 18.1973 57.4034 18.9482C58.1 19.6991 59.0781 20.0745 60.3379 20.0745C61.5978 20.0745 62.5765 19.6991 63.2724 18.9482C63.9688 18.1973 64.3169 17.2149 64.3169 16C64.3169 14.785 63.9688 13.8025 63.2724 13.0519C62.5763 12.3008 61.5981 11.9253 60.3379 11.9253C59.0777 11.9253 58.1 12.3008 57.4034 13.0519C56.707 13.8025 56.3589 14.7851 56.3589 16ZM51.3851 16C51.3851 14.7191 51.6172 13.5598 52.0813 12.5217C52.5453 11.4837 53.181 10.5947 53.9879 9.85488C54.7946 9.11494 55.7456 8.54631 56.8397 8.1491C57.934 7.75156 59.1 7.55295 60.3379 7.55295C61.5758 7.55295 62.7419 7.75156 63.8365 8.1491C64.931 8.54653 65.8813 9.11516 66.6882 9.85488C67.4949 10.5947 68.1308 11.4837 68.5949 12.5217C69.059 13.5598 69.2913 14.7191 69.2913 16C69.2913 17.2807 69.059 18.4402 68.5949 19.4784C68.1308 20.5161 67.4949 21.4051 66.6882 22.1447C65.8813 22.8849 64.931 23.4533 63.8365 23.8508C62.742 24.2485 61.576 24.4471 60.3379 24.4471C59.0998 24.4471 57.934 24.2485 56.8397 23.8508C55.7454 23.4533 54.7946 22.8849 53.9879 22.1447C53.181 21.4049 52.5453 20.516 52.0813 19.4784C51.6172 18.4402 51.3851 17.2809 51.3851 16Z" fill="#EC5B24"/>
<path fill-rule="evenodd" clip-rule="evenodd" d="M12.6471 15.4368L7.27506 7.95038H13.1446L15.9963 12.3229L18.7486 7.95038H24.2862L19.0469 15.4368L25.2479 24.0494H19.3784L15.8635 18.6832L12.0833 24.0494H6.28047L12.6471 15.4368Z" fill="#EC5B24"/>
</svg>
