<svg width="1536" height="456" viewBox="0 0 1536 456" fill="none" xmlns="http://www.w3.org/2000/svg">
<g clip-path="url(#clip0_3_7)">
<path d="M195.863 -0.203145C196.776 -0.208845 197.689 -0.214545 198.629 -0.220418C200.552 -0.229802 202.476 -0.236375 204.4 -0.240255C207.267 -0.249869 210.134 -0.280919 213.002 -0.31252C232.647 -0.425521 251.191 2.38592 270 7.99998C270.657 8.19318 271.313 8.38638 271.99 8.58543C307.407 19.1697 342.477 41.3025 366 70C366.963 71.1281 367.927 72.2556 368.891 73.3828C387.045 94.8566 400.907 120.02 409 147C409.363 148.168 409.727 149.336 410.102 150.539C425.105 204.026 416.448 260.781 390 309C383.372 320.376 375.338 330.836 367 341C366.126 342.079 366.126 342.079 365.234 343.18C363.871 344.828 362.442 346.421 361 348C360.34 348 359.68 348 359 348C358.798 348.535 358.595 349.07 358.387 349.621C356.416 353.002 353.67 355.442 350.812 358.062C350.192 358.633 349.572 359.204 348.934 359.792C342.344 365.75 335.32 370.98 328 376C327.433 376.391 326.867 376.783 326.283 377.186C281.231 408.031 224.659 419.747 171 410C170.212 409.866 169.424 409.732 168.612 409.594C114.797 400.339 66.9082 368.252 35.4077 324.033C22.0108 304.684 12.0347 282.617 5.68748 260C5.45723 259.196 5.22697 258.392 4.98973 257.564C0.73164 241.559 -0.498349 225.437 -0.391129 208.937C-0.375024 206.001 -0.391101 203.068 -0.410172 200.133C-0.429214 183.794 1.17441 167.756 5.68748 152C5.94095 151.097 6.19441 150.194 6.45555 149.263C15.207 119.134 30.5833 91.398 51.8476 68.3398C53.9672 66.0357 56.0143 63.68 58.0625 61.3125C61.7729 57.1528 65.6989 53.5379 70 50C70.4982 49.5788 70.9964 49.1576 71.5098 48.7236C85.7241 36.7224 101.192 26.7388 118.07 18.897C119.353 18.3008 120.632 17.6963 121.906 17.0835C136.344 10.1495 151.566 6.04504 167.187 2.68748C167.928 2.52804 168.669 2.3686 169.433 2.20433C178.188 0.420659 186.942 -0.158276 195.863 -0.203145ZM156 115C152.955 121.607 150.307 128.314 147.785 135.137C146.989 137.277 146.192 139.416 145.395 141.556C144.995 142.633 144.595 143.71 144.183 144.82C142.382 149.661 140.564 154.497 138.746 159.332C138.038 161.218 137.33 163.104 136.622 164.99C136.266 165.939 135.911 166.887 135.544 167.864C128.946 185.447 122.37 203.039 115.83 220.644C112.196 230.428 108.552 240.207 104.879 249.977C104.541 250.876 104.203 251.776 103.854 252.702C102.254 256.96 100.652 261.217 99.0461 265.473C98.4656 267.016 97.8851 268.559 97.3047 270.102C96.9352 271.077 96.9352 271.077 96.5583 272.073C93.5782 280.006 90.8223 288.003 88 296C106.15 296 124.3 296 143 296C149.488 279.273 155.811 262.495 162.048 245.673C166.151 234.609 170.289 223.562 174.562 212.562C177.757 204.339 180.789 196.079 183.655 187.735C185.662 181.898 187.838 176.157 190.152 170.434C191.164 167.957 191.164 167.957 191 165C191.99 165 192.98 165 194 165C194.165 166.26 194.165 166.26 194.334 167.545C195.06 171.311 196.264 174.731 197.66 178.285C197.926 178.975 198.191 179.664 198.465 180.375C199.326 182.606 200.194 184.834 201.062 187.062C201.659 188.606 202.255 190.149 202.85 191.693C204.026 194.743 205.206 197.792 206.388 200.84C210.835 212.308 215.262 223.782 219.375 235.375C219.734 236.383 219.734 236.383 220.099 237.412C220.75 239.269 221.375 241.134 222 243C222.418 244.035 222.836 245.07 223.267 246.137C224.26 251.373 222.877 254.619 220.949 259.477C220.616 260.365 220.282 261.253 219.939 262.168C218.874 264.995 217.782 267.81 216.687 270.625C215.61 273.449 214.537 276.276 213.468 279.103C212.802 280.858 212.13 282.612 211.452 284.362C211.145 285.16 210.838 285.958 210.522 286.78C210.117 287.824 210.117 287.824 209.703 288.889C208.804 291.443 208.804 291.443 208 296C225.49 296 242.98 296 261 296C266.058 283.37 266.058 283.37 270.875 270.656C271.207 269.759 271.54 268.861 271.882 267.936C272.923 265.125 273.962 262.312 275 259.5C276.373 255.78 277.747 252.061 279.125 248.344C279.459 247.442 279.794 246.54 280.138 245.61C282.038 240.509 284.008 235.447 286.062 230.406C288.646 224.025 290.933 217.567 293.181 211.06C296.596 201.21 300.253 191.451 303.908 181.688C305.152 178.366 306.392 175.044 307.632 171.721C311.135 162.335 314.643 152.951 318.156 143.569C319.386 140.282 320.614 136.993 321.84 133.705C322.672 131.479 323.507 129.255 324.342 127.031C324.836 125.707 325.33 124.383 325.824 123.059C326.248 121.927 326.672 120.796 327.108 119.631C328.107 117.147 328.107 117.147 328 115C310.51 115 293.02 115 275 115C268.597 130.927 268.597 130.927 262.57 146.98C261.831 149.007 261.091 151.034 260.352 153.061C259.223 156.163 258.097 159.265 256.975 162.37C255.867 165.43 254.751 168.487 253.633 171.543C253.296 172.481 252.96 173.42 252.613 174.386C252.299 175.243 251.985 176.099 251.661 176.981C251.387 177.736 251.114 178.49 250.832 179.268C250 181 250 181 248 182C247.729 181.174 247.729 181.174 247.453 180.331C245.696 175.008 243.839 169.733 241.891 164.477C241.456 163.298 241.456 163.298 241.012 162.096C240.093 159.605 239.171 157.115 238.25 154.625C237.347 152.181 236.445 149.738 235.543 147.294C234.943 145.67 234.342 144.046 233.741 142.422C232.157 138.143 230.583 133.861 229.021 129.573C228.701 128.696 228.38 127.818 228.05 126.914C227.434 125.225 226.82 123.536 226.208 121.845C225.086 118.143 225.086 118.143 223 115C220.914 114.906 218.824 114.883 216.736 114.886C216.082 114.886 215.429 114.886 214.755 114.886C212.586 114.887 210.416 114.895 208.246 114.902C206.745 114.904 205.245 114.906 203.744 114.907C199.787 114.91 195.83 114.92 191.873 114.931C187.838 114.942 183.803 114.946 179.768 114.951C171.845 114.962 163.923 114.979 156 115Z" fill="#0DA486"/>
<path d="M581.343 44.5533C582.112 44.5194 582.881 44.4855 583.674 44.4506C590.811 44.1527 597.95 43.9726 605.092 43.8298C609.888 43.7318 614.676 43.5944 619.467 43.3609C650.322 41.8947 650.322 41.8947 657.945 46.955C662.496 51.7772 664.952 57.2711 667.093 63.4841C668.278 66.7702 669.876 69.3014 671.832 72.1875C676.858 80.3018 681.877 88.4193 686.875 96.5508C690.126 101.833 693.398 107.102 696.665 112.374C701.084 119.51 705.481 126.66 709.875 133.813C715.023 142.192 720.21 150.545 725.438 158.875C730.871 167.536 736.209 176.252 741.5 185C747.043 194.164 752.635 203.294 758.312 212.375C758.929 213.361 759.545 214.347 760.18 215.363C763.06 219.957 765.991 224.487 769 229C769.33 168.28 769.66 107.56 770 45C797.39 45 824.78 45 853 45C853 150.93 853 256.86 853 366C825.94 366 798.88 366 771 366C762.881 352.806 754.764 339.616 746.691 326.395C739.101 313.986 731.407 301.641 723.688 289.313C717.018 278.659 710.423 267.96 703.844 257.25C700.369 251.595 696.875 245.952 693.375 240.313C688.259 232.066 683.214 223.778 678.182 215.48C673.838 208.334 669.408 201.247 664.906 194.201C664.45 193.485 663.994 192.769 663.523 192.031C663.131 191.418 662.738 190.805 662.333 190.174C660.484 187.159 658.755 184.071 657 181C656.67 242.05 656.34 303.1 656 366C628.61 366 601.22 366 573 366C572.978 325.251 572.959 284.502 572.949 243.753C572.948 238.947 572.946 234.142 572.945 229.336C572.945 228.379 572.945 227.423 572.944 226.437C572.94 210.924 572.932 195.412 572.923 179.899C572.914 163.995 572.908 148.09 572.906 132.185C572.905 122.362 572.9 112.54 572.892 102.717C572.887 95.9913 572.885 89.2653 572.886 82.5392C572.887 78.6526 572.886 74.766 572.881 70.8794C572.875 66.6758 572.877 62.4723 572.88 58.2687C572.877 57.0265 572.874 55.7843 572.871 54.5045C572.873 53.3878 572.875 52.2712 572.877 51.1206C572.877 50.1489 572.876 49.1772 572.876 48.1761C573.146 43.4401 577.56 44.7049 581.343 44.5533Z" fill="#0DA486"/>
<path d="M1010 145C1037.06 145 1064.12 145 1092 145C1107.22 181.953 1107.22 181.953 1114.29 200.086C1117.14 207.365 1120.03 214.622 1122.94 221.875C1123.31 222.803 1123.31 222.803 1123.69 223.749C1124.69 226.254 1125.7 228.76 1126.7 231.265C1128.53 235.83 1130.36 240.397 1132.18 244.965C1137.38 258.005 1142.6 271.038 1148 284C1148.88 281.856 1149.75 279.71 1150.62 277.563C1151.11 276.368 1151.6 275.173 1152.1 273.941C1153.79 269.646 1155.32 265.295 1156.84 260.938C1159.48 253.398 1162.27 245.927 1165.15 238.476C1166.56 234.821 1167.96 231.162 1169.37 227.504C1169.66 226.736 1169.96 225.967 1170.26 225.176C1173.74 216.092 1177.15 206.984 1180.56 197.875C1180.87 197.042 1181.19 196.208 1181.51 195.349C1184.58 187.148 1187.65 178.944 1190.71 170.737C1191.83 167.721 1192.96 164.705 1194.08 161.69C1194.86 159.604 1195.63 157.518 1196.41 155.431C1197.1 153.58 1197.1 153.58 1197.8 151.691C1198.21 150.611 1198.61 149.53 1199.02 148.416C1200 146 1200 146 1201 145C1203.56 144.905 1206.08 144.874 1208.64 144.887C1209.84 144.886 1209.84 144.886 1211.06 144.886C1213.72 144.887 1216.38 144.895 1219.04 144.902C1220.87 144.904 1222.71 144.906 1224.55 144.907C1229.39 144.911 1234.24 144.92 1239.08 144.931C1244.02 144.942 1248.96 144.946 1253.9 144.951C1263.6 144.962 1273.3 144.979 1283 145C1282.25 150.007 1280.81 154.344 1278.88 159C1278.14 160.804 1277.41 162.609 1276.67 164.414C1276.25 165.444 1275.83 166.475 1275.4 167.536C1272.6 174.465 1269.87 181.422 1267.12 188.375C1266.48 189.999 1265.84 191.624 1265.2 193.248C1259.65 207.314 1254.15 221.399 1248.65 235.484C1243.65 248.279 1238.6 261.052 1233.47 273.798C1229.27 284.276 1225.16 294.792 1221.06 305.313C1220.37 307.079 1219.69 308.844 1219 310.61C1218.66 311.479 1218.32 312.348 1217.97 313.242C1217.64 314.106 1217.3 314.97 1216.95 315.859C1216.62 316.72 1216.28 317.58 1215.94 318.466C1211.45 329.992 1206.94 341.512 1202.37 353.01C1201.02 356.415 1199.68 359.822 1198.34 363.233C1185.37 396.317 1169.45 432.331 1135 448C1131.99 449.23 1128.95 450.331 1125.88 451.375C1125.17 451.614 1124.47 451.852 1123.74 452.098C1111.16 456.091 1098.69 456.367 1085.62 456.313C1084.74 456.311 1083.85 456.31 1082.94 456.308C1072.64 456.277 1062.41 456.146 1052.19 454.75C1051.39 454.641 1050.58 454.532 1049.76 454.419C1043.35 453.372 1038.32 451.3 1032 449C1032 428.54 1032 408.08 1032 387C1037.61 388.32 1043.22 389.64 1049 391C1062.14 392.877 1074.83 393.021 1086.38 385.5C1093.58 379.419 1097.13 370.199 1100.5 361.625C1100.77 360.959 1101.04 360.294 1101.31 359.608C1103.77 352.965 1102.37 348.351 1099.56 342.07C1099.06 340.954 1098.56 339.837 1098.05 338.687C1097.52 337.512 1096.99 336.336 1096.44 335.125C1095.89 333.895 1095.33 332.665 1094.78 331.434C1091.69 324.563 1088.47 317.777 1085.01 311.081C1081.89 304.961 1079.18 298.673 1076.44 292.375C1073.1 284.692 1069.65 277.145 1065.84 269.688C1061.87 261.839 1058.36 253.76 1054.71 245.759C1051.37 238.416 1047.99 231.084 1044.62 223.75C1044.26 222.956 1043.9 222.162 1043.52 221.343C1038.23 209.821 1032.91 198.312 1027.56 186.815C1023.48 178.045 1019.44 169.257 1015.42 160.458C1015 159.533 1014.58 158.609 1014.14 157.656C1013.78 156.85 1013.41 156.044 1013.03 155.213C1012.03 153.003 1012.03 153.003 1010.87 150.959C1010 149 1010 149 1010 145Z" fill="#0DA486"/>
<path d="M1397.54 138.815C1400.1 138.813 1402.66 138.794 1405.22 138.775C1418.98 138.727 1432.42 139.696 1445.81 143.125C1447.05 143.44 1447.05 143.44 1448.32 143.762C1469.4 149.417 1489.97 159.995 1505 176C1505.8 176.786 1506.6 177.573 1507.42 178.383C1527.64 198.885 1536.17 224.868 1536.24 253.251C1536.25 255.467 1536.28 257.682 1536.31 259.898C1536.51 286.786 1527.27 312.074 1509 332C1508.16 332.924 1507.31 333.849 1506.45 334.801C1482.25 360.154 1446.84 372.057 1412.42 373.109C1368.6 373.99 1327.69 366.4 1294.91 334.965C1281.68 321.789 1272.85 304.936 1268 287C1267.52 285.298 1267.52 285.298 1267.04 283.562C1260.18 254.237 1264.65 221.011 1280.47 195.305C1289.05 181.905 1299.82 170.86 1313 162C1314.48 160.995 1314.48 160.995 1315.99 159.969C1340.36 144.172 1368.93 138.812 1397.54 138.815ZM1360.88 218.684C1349.55 232.631 1347.42 248.567 1349 266C1350.96 278.755 1356.99 290.543 1367.1 298.691C1381 308.473 1396.86 310.685 1413.37 307.937C1425.17 305.36 1435.65 299.749 1443 290C1452.73 273.714 1455.08 256.643 1451 238C1447.48 226.146 1440.51 216.572 1430 210C1429.4 209.622 1428.8 209.245 1428.18 208.855C1407.23 197.131 1377.21 201.263 1360.88 218.684Z" fill="#0DA486"/>
<path d="M895 145C922.06 145 949.12 145 977 145C977 217.93 977 290.86 977 366C949.94 366 922.88 366 895 366C895 293.07 895 220.14 895 145Z" fill="#0DA486"/>
<path d="M964 41C965.33 41.8662 965.33 41.8662 966.688 42.75C975.939 51.751 980.059 62.3959 980.25 75.1875C980.149 84.9952 977.883 93.1227 972 101C971.558 101.606 971.116 102.212 970.66 102.836C964.18 111.058 955.21 115.974 945 118C931.631 119.447 919.234 117.802 908.098 109.758C897.669 101.019 893.004 90.9749 891.777 77.5664C891.353 66.0475 894.77 55.1978 902.195 46.3984C918.898 28.6483 944.159 27.295 964 41Z" fill="#0DA486"/>
<path d="M488 0C488.66 0 489.32 0 490 0C490.749 14.3189 491.251 28.6256 491.535 42.9609C491.556 43.9971 491.578 45.0333 491.6 46.101C491.765 54.1921 491.917 62.2835 492.063 70.375C492.085 71.5942 492.107 72.8134 492.129 74.0695C493.487 149.833 493.742 225.641 492.063 342.625C492.03 344.433 492.03 344.433 491.997 346.279C491.852 354.199 491.697 362.119 491.535 370.039C491.516 371.022 491.496 372.006 491.476 373.019C491.207 386.359 490.697 399.675 490 413C489.34 413 488.68 413 488 413C487.113 409.913 486.826 407.064 486.719 403.858C486.682 402.819 486.645 401.781 486.607 400.711C486.554 399 486.554 399 486.5 397.254C486.459 396.025 486.419 394.796 486.377 393.53C486.291 390.877 486.206 388.225 486.125 385.572C486.009 381.802 485.88 378.033 485.75 374.264C483.994 320.579 483.828 266.841 483.871 213.133C483.875 207.974 483.874 202.815 483.87 197.657C483.827 143.473 484.014 89.2551 485.875 35.0979C485.985 31.8641 486.088 28.6302 486.187 25.396C486.287 22.1792 486.394 18.9627 486.5 15.7461C486.553 14.0347 486.553 14.0347 486.607 12.2887C486.644 11.2504 486.681 10.2121 486.719 9.14233C486.749 8.24015 486.779 7.33796 486.811 6.40843C486.987 4.15997 487.378 2.16318 488 0Z" fill="#0DA486"/>
</g>
<defs>
<clipPath id="clip0_3_7">
<rect width="1536" height="456" fill="white"/>
</clipPath>
</defs>
</svg>
